<svg id="Layer_1" data-name="Layer 1" xmlns="http://www.w3.org/2000/svg" viewBox="0 0 25 25"><defs><style>.cls-1{opacity:0.5;}.cls-2{fill:#fff;}</style></defs><title>dots</title><g class="cls-1"><circle class="cls-2" cx="16.71" cy="13.74" r="0.14" transform="translate(-4.82 15.84) rotate(-45)"/><circle class="cls-2" cx="16.46" cy="14.68" r="0.14" transform="translate(-5.56 15.94) rotate(-45)"/><circle class="cls-2" cx="16.01" cy="15.55" r="0.18" transform="translate(-6.31 15.88) rotate(-45)"/><circle class="cls-2" cx="15.4" cy="16.31" r="0.18" transform="translate(-7.02 15.67) rotate(-45)"/><circle class="cls-2" cx="14.64" cy="16.92" r="0.32" transform="translate(-7.68 15.31) rotate(-45)"/><circle class="cls-2" cx="13.78" cy="17.36" r="0.12" transform="translate(-8.24 14.83) rotate(-45)"/><circle class="cls-2" cx="12.84" cy="17.62" r="0.23" transform="translate(-8.7 14.24) rotate(-45)"/><circle class="cls-2" cx="11.86" cy="17.67" r="0.24" transform="translate(-9.02 13.56) rotate(-45)"/><circle class="cls-2" cx="16.12" cy="9.35" r="0.13" transform="translate(-1.89 14.14) rotate(-45)"/><circle class="cls-2" cx="16.71" cy="10.12" r="0.16" transform="translate(-2.26 14.78) rotate(-45)"/><circle class="cls-2" cx="17.15" cy="10.99" r="0.2" transform="translate(-2.75 15.35) rotate(-45)"/><circle class="cls-2" cx="17.43" cy="11.92" r="0.16" transform="translate(-3.33 15.82) rotate(-45)"/><circle class="cls-2" cx="17.54" cy="12.89" r="0.09" transform="translate(-3.98 16.18) rotate(-45)"/><circle class="cls-2" cx="17.48" cy="13.87" r="0.09" transform="translate(-4.69 16.42) rotate(-45)"/><circle class="cls-2" cx="17.24" cy="14.81" r="0.32" transform="translate(-5.42 16.53) rotate(-45)"/><circle class="cls-2" cx="16.83" cy="15.7" r="0.1" transform="translate(-6.17 16.5) rotate(-45)"/><circle class="cls-2" cx="16.28" cy="16.5" r="0.1" transform="translate(-6.9 16.34) rotate(-45)"/><circle class="cls-2" cx="15.59" cy="17.19" r="0.11" transform="translate(-7.59 16.06) rotate(-45)"/><circle class="cls-2" cx="14.79" cy="17.74" r="0.16" transform="translate(-8.21 15.65) rotate(-45)"/><circle class="cls-2" cx="13.9" cy="18.14" r="0.15" transform="translate(-8.76 15.14) rotate(-45)"/><circle class="cls-2" cx="12.96" cy="18.38" r="0.14" transform="translate(-9.2 14.55) rotate(-45)"/><circle class="cls-2" cx="11.98" cy="18.45" r="0.16" transform="translate(-9.54 13.88) rotate(-45)"/><circle class="cls-2" cx="11.02" cy="18.34" r="0.17" transform="translate(-9.74 13.16) rotate(-45)"/><circle class="cls-2" cx="10.08" cy="18.06" r="0.22" transform="translate(-9.82 12.42) rotate(-45)"/><circle class="cls-2" cx="9.21" cy="17.62" r="0.19" transform="translate(-9.76 11.68) rotate(-45)"/><circle class="cls-2" cx="14.03" cy="7.11" r="0.06" transform="translate(-0.92 12) rotate(-45)"/><circle class="cls-2" cx="15.76" cy="7.99" r="0.15" transform="translate(-1.03 13.48) rotate(-45)"/><circle class="cls-2" cx="16.5" cy="8.62" r="0.08" transform="translate(-1.26 14.19) rotate(-45)"/><circle class="cls-2" cx="17.13" cy="9.36" r="0.15" transform="translate(-1.6 14.86) rotate(-45)"/><circle class="cls-2" cx="17.64" cy="10.19" r="0.1" transform="translate(-2.04 15.46) rotate(-45)"/><circle class="cls-2" cx="18.01" cy="11.09" r="0.1" transform="translate(-2.57 15.99) rotate(-45)"/><circle class="cls-2" cx="18.24" cy="12.04" r="0.11" transform="translate(-3.17 16.43) rotate(-45)"/><circle class="cls-2" cx="18.32" cy="13.01" r="0.12" transform="translate(-3.84 16.76) rotate(-45)"/><circle class="cls-2" cx="18.24" cy="13.99" r="0.13" transform="translate(-4.55 17) rotate(-45)"/><circle class="cls-2" cx="18.01" cy="14.93" r="0.32" transform="translate(-5.28 17.11) rotate(-45)"/><circle class="cls-2" cx="17.64" cy="15.83" r="0.15" transform="translate(-6.03 17.11) rotate(-45)"/><circle class="cls-2" cx="17.13" cy="16.67" r="0.16" transform="translate(-6.77 17) rotate(-45)"/><circle class="cls-2" cx="16.5" cy="17.41" r="0.14" transform="translate(-7.48 16.76) rotate(-45)"/><circle class="cls-2" cx="15.76" cy="18.04" r="0.23" transform="translate(-8.14 16.43) rotate(-45)"/><circle class="cls-2" cx="14.93" cy="18.55" r="0.21" transform="translate(-8.74 15.99) rotate(-45)"/><circle class="cls-2" cx="14.03" cy="18.92" r="0.12" transform="translate(-9.27 15.46) rotate(-45)"/><circle class="cls-2" cx="13.08" cy="19.15" r="0.23" transform="translate(-9.71 14.86) rotate(-45)"/><circle class="cls-2" cx="12.11" cy="19.23" r="0.22" transform="translate(-10.05 14.19) rotate(-45)"/><circle class="cls-2" cx="11.14" cy="19.15" r="0.23" transform="translate(-10.28 13.48) rotate(-45)"/><circle class="cls-2" cx="10.19" cy="18.92" r="0.2" transform="translate(-10.4 12.75) rotate(-45)"/><circle class="cls-2" cx="9.29" cy="18.55" r="0.27" transform="translate(-10.4 12) rotate(-45)"/><circle class="cls-2" cx="8.45" cy="18.04" r="0.25" transform="translate(-10.28 11.26) rotate(-45)"/><circle class="cls-2" cx="7.71" cy="17.41" r="0.18" transform="translate(-10.05 10.55) rotate(-45)"/><circle class="cls-2" cx="7.08" cy="16.67" r="0.18" transform="translate(-9.71 9.89) rotate(-45)"/><circle class="cls-2" cx="11.5" cy="6.05" r="0.09" transform="translate(-0.91 9.9) rotate(-45)"/><circle class="cls-2" cx="13.44" cy="6.15" r="0.12" transform="translate(-0.42 11.31) rotate(-45)"/><circle class="cls-2" cx="14.38" cy="6.41" r="0.09" transform="translate(-0.32 12.05) rotate(-45)"/><circle class="cls-2" cx="15.28" cy="6.79" r="0.09" transform="translate(-0.32 12.79) rotate(-45)"/><circle class="cls-2" cx="16.12" cy="7.29" r="0.24" transform="translate(-0.43 13.53) rotate(-45)"/><circle class="cls-2" cx="16.87" cy="7.9" r="0.17" transform="translate(-0.65 14.25) rotate(-45)"/><circle class="cls-2" cx="17.54" cy="8.62" r="0.17" transform="translate(-0.96 14.92) rotate(-45)"/><circle class="cls-2" cx="18.1" cy="9.42" r="0.11" transform="translate(-1.36 15.55) rotate(-45)"/><circle class="cls-2" cx="18.54" cy="10.28" r="0.11" transform="translate(-1.84 16.12) rotate(-45)"/><circle class="cls-2" cx="18.86" cy="11.21" r="0.22" transform="translate(-2.4 16.62) rotate(-45)"/><circle class="cls-2" cx="19.04" cy="12.16" r="0.13" transform="translate(-3.02 17.03) rotate(-45)"/><circle class="cls-2" cx="19.09" cy="13.14" r="0.14" transform="translate(-3.7 17.35) rotate(-45)"/><circle class="cls-2" cx="19.01" cy="14.11" r="0.12" transform="translate(-4.41 17.57) rotate(-45)"/><circle class="cls-2" cx="18.79" cy="15.06" r="0.18" transform="translate(-5.14 17.7) rotate(-45)"/><circle class="cls-2" cx="18.44" cy="15.97" r="0.22" transform="translate(-5.89 17.72) rotate(-45)"/><circle class="cls-2" cx="17.97" cy="16.82" r="0.24" transform="translate(-6.63 17.63) rotate(-45)"/><circle class="cls-2" cx="17.38" cy="17.6" r="0.22" transform="translate(-7.35 17.44) rotate(-45)"/><circle class="cls-2" cx="16.69" cy="18.29" r="0.28" transform="translate(-8.04 17.16) rotate(-45)"/><circle class="cls-2" cx="15.91" cy="18.88" r="0.24" transform="translate(-8.69 16.78) rotate(-45)"/><circle class="cls-2" cx="15.06" cy="19.35" r="0.28" transform="translate(-9.27 16.32) rotate(-45)"/><circle class="cls-2" cx="14.15" cy="19.7" r="0.28" transform="translate(-9.78 15.77) rotate(-45)"/><circle class="cls-2" cx="13.2" cy="19.92" r="0.3" transform="translate(-10.22 15.17) rotate(-45)"/><circle class="cls-2" cx="12.23" cy="20" r="0.26" transform="translate(-10.56 14.51) rotate(-45)"/><circle class="cls-2" cx="11.26" cy="19.95" r="0.31" transform="translate(-10.81 13.8) rotate(-45)"/><circle class="cls-2" cx="10.3" cy="19.76" r="0.31" transform="translate(-10.96 13.07) rotate(-45)"/><circle class="cls-2" cx="9.38" cy="19.45" r="0.27" transform="translate(-11.01 12.33) rotate(-45)"/><circle class="cls-2" cx="8.51" cy="19.01" r="0.25" transform="translate(-10.95 11.58) rotate(-45)"/><circle class="cls-2" cx="7.71" cy="18.45" r="0.24" transform="translate(-10.79 10.85) rotate(-45)"/><circle class="cls-2" cx="7" cy="17.78" r="0.23" transform="translate(-10.52 10.15) rotate(-45)"/><circle class="cls-2" cx="6.38" cy="17.02" r="0.22" transform="translate(-10.17 9.5) rotate(-45)"/><circle class="cls-2" cx="5.88" cy="16.19" r="0.18" transform="translate(-9.72 8.9) rotate(-45)"/><circle class="cls-2" cx="9.94" cy="5.56" r="0.12" transform="translate(-1.02 8.66) rotate(-45)"/><circle class="cls-2" cx="10.89" cy="5.35" r="0.1" transform="translate(-0.59 9.27) rotate(-45)"/><circle class="cls-2" cx="11.86" cy="5.25" r="0.11" transform="translate(-0.24 9.93) rotate(-45)"/><circle class="cls-2" cx="12.84" cy="5.28" r="0.1" transform="translate(0.02 10.62) rotate(-45)"/><circle class="cls-2" cx="13.8" cy="5.44" r="0.17" transform="translate(0.2 11.35) rotate(-45)"/><circle class="cls-2" cx="14.74" cy="5.71" r="0.13" transform="translate(0.28 12.09) rotate(-45)"/><circle class="cls-2" cx="15.63" cy="6.1" r="0.16" transform="translate(0.27 12.84) rotate(-45)"/><circle class="cls-2" cx="16.47" cy="6.59" r="0.18" transform="translate(0.16 13.58) rotate(-45)"/><circle class="cls-2" cx="17.24" cy="7.19" r="0.11" transform="translate(-0.03 14.3) rotate(-45)"/><circle class="cls-2" cx="17.93" cy="7.88" r="0.24" transform="translate(-0.32 14.99) rotate(-45)"/><circle class="cls-2" cx="18.53" cy="8.65" r="0.13" transform="translate(-0.69 15.64) rotate(-45)"/><circle class="cls-2" cx="19.02" cy="9.49" r="0.1" transform="translate(-1.14 16.23) rotate(-45)"/><circle class="cls-2" cx="19.41" cy="10.38" r="0.16" transform="translate(-1.66 16.77) rotate(-45)"/><circle class="cls-2" cx="19.68" cy="11.32" r="0.18" transform="translate(-2.24 17.23) rotate(-45)"/><circle class="cls-2" cx="19.84" cy="12.28" r="0.18" transform="translate(-2.88 17.62) rotate(-45)"/><circle class="cls-2" cx="19.87" cy="13.26" r="0.18" transform="translate(-3.56 17.93) rotate(-45)"/><circle class="cls-2" cx="19.78" cy="14.23" r="0.17" transform="translate(-4.27 18.15) rotate(-45)"/><circle class="cls-2" cx="19.56" cy="15.18" r="0.32" transform="translate(-5.01 18.28) rotate(-45)"/><circle class="cls-2" cx="19.23" cy="16.1" r="0.34" transform="translate(-5.75 18.31) rotate(-45)"/><circle class="cls-2" cx="18.79" cy="16.97" r="0.33" transform="translate(-6.49 18.26) rotate(-45)"/><circle class="cls-2" cx="18.24" cy="17.77" r="0.24" transform="translate(-7.22 18.1) rotate(-45)"/><circle class="cls-2" cx="17.6" cy="18.51" r="0.32" transform="translate(-7.93 17.86) rotate(-45)"/><circle class="cls-2" cx="16.87" cy="19.15" r="0.26" transform="translate(-8.6 17.53) rotate(-45)"/><circle class="cls-2" cx="16.06" cy="19.7" r="0.22" transform="translate(-9.23 17.13) rotate(-45)"/><circle class="cls-2" cx="15.19" cy="20.14" r="0.22" transform="translate(-9.79 16.64) rotate(-45)"/><circle class="cls-2" cx="14.27" cy="20.47" r="0.33" transform="translate(-10.29 16.09) rotate(-45)"/><circle class="cls-2" cx="13.32" cy="20.68" r="0.14" transform="translate(-10.72 15.48) rotate(-45)"/><circle class="cls-2" cx="12.35" cy="20.78" r="0.26" transform="translate(-11.07 14.82) rotate(-45)"/><circle class="cls-2" cx="11.38" cy="20.75" r="0.26" transform="translate(-11.34 14.12) rotate(-45)"/><circle class="cls-2" cx="10.41" cy="20.59" r="0.28" transform="translate(-11.51 13.39) rotate(-45)"/><circle class="cls-2" cx="9.48" cy="20.32" r="0.27" transform="translate(-11.59 12.65) rotate(-45)"/><circle class="cls-2" cx="8.58" cy="19.93" r="0.3" transform="translate(-11.58 11.91) rotate(-45)"/><circle class="cls-2" cx="7.74" cy="19.44" r="0.11" transform="translate(-11.48 11.17) rotate(-45)"/><circle class="cls-2" cx="6.97" cy="18.84" r="0.16" transform="translate(-11.28 10.45) rotate(-45)"/><circle class="cls-2" cx="6.28" cy="18.15" r="0.19" transform="translate(-10.99 9.76) rotate(-45)"/><circle class="cls-2" cx="5.68" cy="17.38" r="0.18" transform="translate(-10.62 9.11) rotate(-45)"/><circle class="cls-2" cx="5.19" cy="16.54" r="0.16" transform="translate(-10.18 8.51) rotate(-45)"/><circle class="cls-2" cx="4.8" cy="15.65" r="0.19" transform="translate(-9.66 7.98) rotate(-45)"/><circle class="cls-2" cx="4.53" cy="14.71" r="0.16" transform="translate(-9.07 7.51) rotate(-45)"/><circle class="cls-2" cx="4.38" cy="13.75" r="0.16" transform="translate(-8.44 7.12) rotate(-45)"/><circle class="cls-2" cx="8.45" cy="5.3" r="0.09" transform="translate(-1.27 7.52) rotate(-45)"/><circle class="cls-2" cx="9.35" cy="4.93" r="0.07" transform="translate(-0.75 8.06) rotate(-45)"/><circle class="cls-2" cx="10.29" cy="4.67" r="0.13" transform="translate(-0.29 8.64) rotate(-45)"/><circle class="cls-2" cx="11.25" cy="4.52" r="0.1" transform="translate(0.1 9.28) rotate(-45)"/><circle class="cls-2" cx="12.23" cy="4.47" r="0.1" transform="translate(0.42 9.96) rotate(-45)"/><circle class="cls-2" cx="13.2" cy="4.54" r="0.1" transform="translate(0.65 10.67) rotate(-45)"/><circle class="cls-2" cx="14.16" cy="4.72" r="0.11" transform="translate(0.81 11.4) rotate(-45)"/><circle class="cls-2" cx="15.09" cy="5.01" r="0.14" transform="translate(0.88 12.14) rotate(-45)"/><circle class="cls-2" cx="15.98" cy="5.4" r="0.14" transform="translate(0.86 12.89) rotate(-45)"/><circle class="cls-2" cx="16.83" cy="5.9" r="0.14" transform="translate(0.76 13.63) rotate(-45)"/><circle class="cls-2" cx="17.61" cy="6.48" r="0.1" transform="translate(0.58 14.35) rotate(-45)"/><circle class="cls-2" cx="18.32" cy="7.15" r="0.21" transform="translate(0.31 15.05) rotate(-45)"/><circle class="cls-2" cx="18.94" cy="7.9" r="0.24" transform="translate(-0.03 15.71) rotate(-45)"/><circle class="cls-2" cx="19.48" cy="8.71" r="0.13" transform="translate(-0.45 16.33) rotate(-45)"/><circle class="cls-2" cx="19.93" cy="9.58" r="0.15" transform="translate(-0.94 16.9) rotate(-45)"/><circle class="cls-2" cx="20.27" cy="10.49" r="0.2" transform="translate(-1.48 17.4) rotate(-45)"/><circle class="cls-2" cx="20.5" cy="11.44" r="0.33" transform="translate(-2.08 17.85) rotate(-45)"/><circle class="cls-2" cx="20.63" cy="12.41" r="0.15" transform="translate(-2.73 18.22) rotate(-45)"/><circle class="cls-2" cx="20.64" cy="13.38" r="0.35" transform="translate(-3.42 18.51) rotate(-45)"/><circle class="cls-2" cx="20.54" cy="14.35" r="0.32" transform="translate(-4.13 18.73) rotate(-45)"/><circle class="cls-2" cx="20.34" cy="15.3" r="0.36" transform="translate(-4.87 18.86) rotate(-45)"/><circle class="cls-2" cx="20.02" cy="16.23" r="0.34" transform="translate(-5.61 18.91) rotate(-45)"/><circle class="cls-2" cx="19.6" cy="17.11" r="0.27" transform="translate(-6.36 18.87) rotate(-45)"/><circle class="cls-2" cx="19.09" cy="17.94" r="0.18" transform="translate(-7.09 18.75) rotate(-45)"/><circle class="cls-2" cx="18.48" cy="18.7" r="0.26" transform="translate(-7.81 18.55) rotate(-45)"/><circle class="cls-2" cx="17.79" cy="19.39" r="0.2" transform="translate(-8.5 18.26) rotate(-45)"/><circle class="cls-2" cx="17.03" cy="20" r="0.2" transform="translate(-9.15 17.9) rotate(-45)"/><circle class="cls-2" cx="16.2" cy="20.51" r="0.14" transform="translate(-9.76 17.46) rotate(-45)"/><circle class="cls-2" cx="15.32" cy="20.93" r="0.19" transform="translate(-10.31 16.96) rotate(-45)"/><circle class="cls-2" cx="14.4" cy="21.24" r="0.34" transform="translate(-10.81 16.4) rotate(-45)"/><circle class="cls-2" cx="13.44" cy="21.45" r="0.13" transform="translate(-11.23 15.79) rotate(-45)"/><circle class="cls-2" cx="12.47" cy="21.55" r="0.23" transform="translate(-11.58 15.13) rotate(-45)"/><circle class="cls-2" cx="11.5" cy="21.53" r="0.18" transform="translate(-11.86 14.44) rotate(-45)"/><circle class="cls-2" cx="10.53" cy="21.41" r="0.28" transform="translate(-12.05 13.72) rotate(-45)"/><circle class="cls-2" cx="9.58" cy="21.17" r="0.13" transform="translate(-12.17 12.98) rotate(-45)"/><circle class="cls-2" cx="8.67" cy="20.83" r="0.11" transform="translate(-12.19 12.23) rotate(-45)"/><circle class="cls-2" cx="7.8" cy="20.39" r="0.11" transform="translate(-12.13 11.49) rotate(-45)"/><circle class="cls-2" cx="6.99" cy="19.85" r="0.11" transform="translate(-11.99 10.76) rotate(-45)"/><circle class="cls-2" cx="6.24" cy="19.22" r="0.14" transform="translate(-11.76 10.04) rotate(-45)"/><circle class="cls-2" cx="5.57" cy="18.52" r="0.14" transform="translate(-11.46 9.36) rotate(-45)"/><circle class="cls-2" cx="4.99" cy="17.73" r="0.14" transform="translate(-11.08 8.72) rotate(-45)"/><circle class="cls-2" cx="4.5" cy="16.89" r="0.14" transform="translate(-10.63 8.13) rotate(-45)"/><circle class="cls-2" cx="4.1" cy="16" r="0.07" transform="translate(-10.11 7.59) rotate(-45)"/><circle class="cls-2" cx="3.81" cy="15.07" r="0.18" transform="translate(-9.54 7.11) rotate(-45)"/><circle class="cls-2" cx="3.64" cy="14.11" r="0.2" transform="translate(-8.91 6.7) rotate(-45)"/><circle class="cls-2" cx="3.57" cy="13.14" r="0.16" transform="translate(-8.24 6.37) rotate(-45)"/><circle class="cls-2" cx="3.61" cy="12.16" r="0.24" transform="translate(-7.54 6.11) rotate(-45)"/><circle class="cls-2" cx="3.76" cy="11.2" r="0.21" transform="translate(-6.82 5.94) rotate(-45)"/><circle class="cls-2" cx="9.69" cy="4.01" r="0.12" transform="translate(0 8.03) rotate(-45)"/><circle class="cls-2" cx="10.65" cy="3.81" r="0.15" transform="translate(0.42 8.65) rotate(-45)"/><circle class="cls-2" cx="11.62" cy="3.71" r="0.14" transform="translate(0.78 9.3) rotate(-45)"/><circle class="cls-2" cx="12.59" cy="3.71" r="0.16" transform="translate(1.07 9.99) rotate(-45)"/><circle class="cls-2" cx="13.56" cy="3.81" r="0.17" transform="translate(1.28 10.71) rotate(-45)"/><circle class="cls-2" cx="14.52" cy="4.01" r="0.14" transform="translate(1.41 11.44) rotate(-45)"/><circle class="cls-2" cx="15.45" cy="4.32" r="0.18" transform="translate(1.47 12.19) rotate(-45)"/><circle class="cls-2" cx="16.34" cy="4.71" r="0.11" transform="translate(1.45 12.93) rotate(-45)"/><circle class="cls-2" cx="17.18" cy="5.2" r="0.14" transform="translate(1.36 13.67) rotate(-45)"/><circle class="cls-2" cx="17.97" cy="5.77" r="0.25" transform="translate(1.18 14.4) rotate(-45)"/><circle class="cls-2" cx="18.7" cy="6.43" r="0.27" transform="translate(0.93 15.1) rotate(-45)"/><circle class="cls-2" cx="19.35" cy="7.15" r="0.24" transform="translate(0.61 15.78) rotate(-45)"/><circle class="cls-2" cx="19.92" cy="7.94" r="0.24" transform="translate(0.22 16.41) rotate(-45)"/><circle class="cls-2" cx="20.41" cy="8.78" r="0.26" transform="translate(-0.23 17) rotate(-45)"/><circle class="cls-2" cx="20.81" cy="9.68" r="0.26" transform="translate(-0.75 17.55) rotate(-45)"/><circle class="cls-2" cx="21.11" cy="10.6" r="0.33" transform="translate(-1.31 18.03) rotate(-45)"/><circle class="cls-2" cx="21.31" cy="11.56" r="0.35" transform="translate(-1.93 18.45) rotate(-45)"/><circle class="cls-2" cx="21.41" cy="12.53" r="0.33" transform="translate(-2.59 18.81) rotate(-45)"/><circle class="cls-2" cx="21.41" cy="13.5" r="0.35" transform="translate(-3.28 19.09) rotate(-45)"/><circle class="cls-2" cx="21.31" cy="14.47" r="0.22" transform="translate(-3.99 19.31) rotate(-45)"/><circle class="cls-2" cx="21.11" cy="15.43" r="0.23" transform="translate(-4.73 19.44) rotate(-45)"/><circle class="cls-2" cx="20.81" cy="16.35" r="0.2" transform="translate(-5.47 19.5) rotate(-45)"/><circle class="cls-2" cx="20.41" cy="17.25" r="0.14" transform="translate(-6.22 19.48) rotate(-45)"/><circle class="cls-2" cx="19.92" cy="18.09" r="0.22" transform="translate(-6.96 19.38) rotate(-45)"/><circle class="cls-2" cx="19.35" cy="18.88" r="0.19" transform="translate(-7.68 19.21) rotate(-45)"/><circle class="cls-2" cx="18.7" cy="19.6" r="0.17" transform="translate(-8.39 18.96) rotate(-45)"/><circle class="cls-2" cx="17.97" cy="20.26" r="0.2" transform="translate(-9.06 18.64) rotate(-45)"/><circle class="cls-2" cx="17.18" cy="20.83" r="0.24" transform="translate(-9.7 18.25) rotate(-45)"/><circle class="cls-2" cx="16.34" cy="21.32" r="0.26" transform="translate(-10.29 17.8) rotate(-45)"/><circle class="cls-2" cx="15.45" cy="21.71" r="0.27" transform="translate(-10.83 17.28) rotate(-45)"/><circle class="cls-2" cx="14.52" cy="22.02" r="0.26" transform="translate(-11.31 16.71) rotate(-45)"/><circle class="cls-2" cx="13.56" cy="22.22" r="0.16" transform="translate(-11.74 16.1) rotate(-45)"/><circle class="cls-2" cx="12.59" cy="22.32" r="0.18" transform="translate(-12.09 15.44) rotate(-45)"/><circle class="cls-2" cx="11.62" cy="22.32" r="0.15" transform="translate(-12.38 14.75) rotate(-45)"/><circle class="cls-2" cx="10.65" cy="22.22" r="0.18" transform="translate(-12.59 14.04) rotate(-45)"/><circle class="cls-2" cx="9.69" cy="22.02" r="0.18" transform="translate(-12.73 13.3) rotate(-45)"/><circle class="cls-2" cx="8.77" cy="21.71" r="0.16" transform="translate(-12.79 12.56) rotate(-45)"/><circle class="cls-2" cx="7.88" cy="21.32" r="0.18" transform="translate(-12.77 11.81) rotate(-45)"/><circle class="cls-2" cx="7.03" cy="20.83" r="0.37" transform="translate(-12.67 11.07) rotate(-45)"/><circle class="cls-2" cx="6.24" cy="20.26" r="0.23" transform="translate(-12.49 10.35) rotate(-45)"/><circle class="cls-2" cx="5.52" cy="19.6" r="0.19" transform="translate(-12.25 9.64) rotate(-45)"/><circle class="cls-2" cx="4.87" cy="18.88" r="0.11" transform="translate(-11.92 8.97) rotate(-45)"/><circle class="cls-2" cx="4.29" cy="18.09" r="0.16" transform="translate(-11.53 8.33) rotate(-45)"/><circle class="cls-2" cx="3.8" cy="17.24" r="0.17" transform="translate(-11.08 7.74) rotate(-45)"/><circle class="cls-2" cx="3.41" cy="16.35" r="0.16" transform="translate(-10.57 7.2) rotate(-45)"/><circle class="cls-2" cx="3.11" cy="15.43" r="0.14" transform="translate(-10 6.71) rotate(-45)"/><circle class="cls-2" cx="2.9" cy="14.47" r="0.16" transform="translate(-9.38 6.29) rotate(-45)"/><circle class="cls-2" cx="2.8" cy="13.5" r="0.16" transform="translate(-8.73 5.94) rotate(-45)"/><circle class="cls-2" cx="2.8" cy="12.53" r="0.1" transform="translate(-8.04 5.65) rotate(-45)"/><circle class="cls-2" cx="2.9" cy="11.56" r="0.21" transform="translate(-7.32 5.44) rotate(-45)"/><circle class="cls-2" cx="3.11" cy="10.6" r="0.24" transform="translate(-6.59 5.3) rotate(-45)"/><circle class="cls-2" cx="3.41" cy="9.68" r="0.19" transform="translate(-5.84 5.24) rotate(-45)"/><circle class="cls-2" cx="4.29" cy="7.94" r="0.07" transform="translate(-4.36 5.36) rotate(-45)"/><circle class="cls-2" cx="4.97" cy="5.88" r="0.09" transform="translate(-2.7 5.23) rotate(-45)"/><circle class="cls-2" cx="5.69" cy="5.22" r="0.1" transform="translate(-2.03 5.55) rotate(-45)"/><circle class="cls-2" cx="6.47" cy="4.64" r="0.11" transform="translate(-1.38 5.94) rotate(-45)"/><circle class="cls-2" cx="7.31" cy="4.13" r="0.09" transform="translate(-0.78 6.38) rotate(-45)"/><circle class="cls-2" cx="8.19" cy="3.71" r="0.15" transform="translate(-0.23 6.88) rotate(-45)"/><circle class="cls-2" cx="9.1" cy="3.38" r="0.14" transform="translate(0.28 7.43) rotate(-45)"/><circle class="cls-2" cx="10.05" cy="3.13" r="0.14" transform="translate(0.73 8.02) rotate(-45)"/><circle class="cls-2" cx="11.01" cy="2.98" r="0.13" transform="translate(1.12 8.66) rotate(-45)"/><circle class="cls-2" cx="11.98" cy="2.92" r="0.09" transform="translate(1.45 9.33) rotate(-45)"/><circle class="cls-2" cx="12.96" cy="2.96" r="0.14" transform="translate(1.7 10.03) rotate(-45)"/><circle class="cls-2" cx="13.93" cy="3.09" r="0.16" transform="translate(1.9 10.75) rotate(-45)"/><circle class="cls-2" cx="14.88" cy="3.31" r="0.14" transform="translate(2.02 11.49) rotate(-45)"/><circle class="cls-2" cx="15.8" cy="3.62" r="0.19" transform="translate(2.07 12.23) rotate(-45)"/><circle class="cls-2" cx="16.69" cy="4.02" r="0.16" transform="translate(2.05 12.98) rotate(-45)"/><circle class="cls-2" cx="17.54" cy="4.5" r="0.16" transform="translate(1.95 13.72) rotate(-45)"/><circle class="cls-2" cx="18.33" cy="5.07" r="0.11" transform="translate(1.79 14.45) rotate(-45)"/><circle class="cls-2" cx="19.07" cy="5.71" r="0.19" transform="translate(1.55 15.16) rotate(-45)"/><circle class="cls-2" cx="19.74" cy="6.41" r="0.1" transform="translate(1.25 15.84) rotate(-45)"/><circle class="cls-2" cx="20.34" cy="7.18" r="0.26" transform="translate(0.88 16.49) rotate(-45)"/><circle class="cls-2" cx="20.87" cy="8" r="0.26" transform="translate(0.45 17.1) rotate(-45)"/><circle class="cls-2" cx="21.31" cy="8.87" r="0.25" transform="translate(-0.03 17.67) rotate(-45)"/><circle class="cls-2" cx="21.67" cy="9.78" r="0.31" transform="translate(-0.57 18.19) rotate(-45)"/><circle class="cls-2" cx="21.94" cy="10.72" r="0.21" transform="translate(-1.15 18.65) rotate(-45)"/><circle class="cls-2" cx="22.11" cy="11.68" r="0.22" transform="translate(-1.78 19.06) rotate(-45)"/><circle class="cls-2" cx="22.19" cy="12.65" r="0.21" transform="translate(-2.44 19.4) rotate(-45)"/><circle class="cls-2" cx="22.18" cy="13.62" r="0.13" transform="translate(-3.14 19.68) rotate(-45)"/><circle class="cls-2" cx="22.08" cy="14.59" r="0.17" transform="translate(-3.85 19.88) rotate(-45)"/><circle class="cls-2" cx="21.88" cy="15.55" r="0.23" transform="translate(-4.59 20.02) rotate(-45)"/><circle class="cls-2" cx="21.59" cy="16.48" r="0.15" transform="translate(-5.33 20.09) rotate(-45)"/><circle class="cls-2" cx="21.21" cy="17.38" r="0.14" transform="translate(-6.08 20.09) rotate(-45)"/><circle class="cls-2" cx="20.74" cy="18.24" r="0.2" transform="translate(-6.82 20.01) rotate(-45)"/><circle class="cls-2" cx="20.2" cy="19.05" r="0.18" transform="translate(-7.55 19.86) rotate(-45)"/><circle class="cls-2" cx="19.58" cy="19.8" r="0.26" transform="translate(-8.26 19.65) rotate(-45)"/><circle class="cls-2" cx="18.89" cy="20.49" r="0.22" transform="translate(-8.95 19.36) rotate(-45)"/><circle class="cls-2" cx="18.14" cy="21.11" r="0.24" transform="translate(-9.61 19.01) rotate(-45)"/><circle class="cls-2" cx="17.33" cy="21.65" r="0.24" transform="translate(-10.24 18.6) rotate(-45)"/><circle class="cls-2" cx="16.47" cy="22.12" r="0.26" transform="translate(-10.82 18.12) rotate(-45)"/><circle class="cls-2" cx="15.57" cy="22.5" r="0.23" transform="translate(-11.35 17.6) rotate(-45)"/><circle class="cls-2" cx="14.64" cy="22.79" r="0.26" transform="translate(-11.82 17.03) rotate(-45)"/><circle class="cls-2" cx="13.69" cy="22.98" r="0.26" transform="translate(-12.24 16.41) rotate(-45)"/><circle class="cls-2" cx="12.72" cy="23.09" r="0.28" transform="translate(-12.6 15.75) rotate(-45)"/><circle class="cls-2" cx="11.74" cy="23.1" r="0.28" transform="translate(-12.9 15.07) rotate(-45)"/><circle class="cls-2" cx="10.77" cy="23.02" r="0.29" transform="translate(-13.12 14.36) rotate(-45)"/><circle class="cls-2" cx="9.81" cy="22.84" r="0.24" transform="translate(-13.28 13.63) rotate(-45)"/><circle class="cls-2" cx="8.87" cy="22.58" r="0.19" transform="translate(-13.37 12.89) rotate(-45)"/><circle class="cls-2" cx="7.96" cy="22.22" r="0.18" transform="translate(-13.38 12.14) rotate(-45)"/><circle class="cls-2" cx="7.09" cy="21.78" r="0.37" transform="translate(-13.32 11.4) rotate(-45)"/><circle class="cls-2" cx="6.27" cy="21.25" r="0.06" transform="translate(-13.19 10.66) rotate(-45)"/><circle class="cls-2" cx="5.5" cy="20.65" r="0.18" transform="translate(-12.99 9.94) rotate(-45)"/><circle class="cls-2" cx="4.8" cy="19.98" r="0.07" transform="translate(-12.72 9.24) rotate(-45)"/><circle class="cls-2" cx="4.16" cy="19.24" r="0.17" transform="translate(-12.39 8.58) rotate(-45)"/><circle class="cls-2" cx="3.6" cy="18.44" r="0.06" transform="translate(-11.99 7.95) rotate(-45)"/><circle class="cls-2" cx="3.11" cy="17.6" r="0.06" transform="translate(-11.53 7.36) rotate(-45)"/><circle class="cls-2" cx="2.71" cy="16.71" r="0.07" transform="translate(-11.02 6.81) rotate(-45)"/><circle class="cls-2" cx="2.4" cy="15.78" r="0.18" transform="translate(-10.46 6.32) rotate(-45)"/><circle class="cls-2" cx="2.18" cy="14.83" r="0.13" transform="translate(-9.85 5.88) rotate(-45)"/><circle class="cls-2" cx="2.05" cy="13.87" r="0.16" transform="translate(-9.21 5.51) rotate(-45)"/><circle class="cls-2" cx="2.01" cy="12.89" r="0.1" transform="translate(-8.53 5.2) rotate(-45)"/><circle class="cls-2" cx="2.07" cy="11.92" r="0.18" transform="translate(-7.82 4.96) rotate(-45)"/><circle class="cls-2" cx="2.22" cy="10.96" r="0.19" transform="translate(-7.1 4.78) rotate(-45)"/><circle class="cls-2" cx="2.47" cy="10.01" r="0.06" transform="translate(-6.36 4.68) rotate(-45)"/><circle class="cls-2" cx="2.8" cy="9.1" r="0.15" transform="translate(-5.61 4.65) rotate(-45)"/><circle class="cls-2" cx="3.23" cy="8.22" r="0.19" transform="translate(-4.86 4.69) rotate(-45)"/><circle class="cls-2" cx="3.73" cy="7.38" r="0.15" transform="translate(-4.13 4.8) rotate(-45)"/><circle class="cls-2" cx="4.31" cy="6.6" r="0.18" transform="translate(-3.4 4.98) rotate(-45)"/><circle class="cls-2" cx="4.42" cy="5.33" r="0.11" transform="translate(-2.47 4.69) rotate(-45)"/><circle class="cls-2" cx="5.14" cy="4.67" r="0.13" transform="translate(-1.8 5) rotate(-45)"/><circle class="cls-2" cx="5.92" cy="4.08" r="0.12" transform="translate(-1.15 5.38) rotate(-45)"/><circle class="cls-2" cx="6.74" cy="3.56" r="0.12" transform="translate(-0.54 5.81) rotate(-45)"/><circle class="cls-2" cx="7.61" cy="3.12" r="0.16" transform="translate(0.03 6.29) rotate(-45)"/><circle class="cls-2" cx="8.52" cy="2.75" r="0.08" transform="translate(0.55 6.83) rotate(-45)"/><circle class="cls-2" cx="9.45" cy="2.47" r="0.18" transform="translate(1.02 7.41) rotate(-45)"/><circle class="cls-2" cx="10.41" cy="2.28" r="0.15" transform="translate(1.44 8.03) rotate(-45)"/><circle class="cls-2" cx="11.38" cy="2.17" r="0.14" transform="translate(1.8 8.68) rotate(-45)"/><circle class="cls-2" cx="12.35" cy="2.15" r="0.13" transform="translate(2.1 9.36) rotate(-45)"/><circle class="cls-2" cx="13.32" cy="2.21" r="0.18" transform="translate(2.34 10.07) rotate(-45)"/><circle class="cls-2" cx="14.29" cy="2.37" r="0.19" transform="translate(2.51 10.8) rotate(-45)"/><circle class="cls-2" cx="15.23" cy="2.6" r="0.24" transform="translate(2.62 11.53) rotate(-45)"/><circle class="cls-2" cx="16.15" cy="2.93" r="0.22" transform="translate(2.66 12.28) rotate(-45)"/><circle class="cls-2" cx="17.04" cy="3.33" r="0.18" transform="translate(2.64 13.03) rotate(-45)"/><circle class="cls-2" cx="17.89" cy="3.81" r="0.22" transform="translate(2.55 13.77) rotate(-45)"/><circle class="cls-2" cx="18.69" cy="4.37" r="0.19" transform="translate(2.39 14.5) rotate(-45)"/><circle class="cls-2" cx="19.44" cy="4.99" r="0.09" transform="translate(2.16 15.21) rotate(-45)"/><circle class="cls-2" cx="20.13" cy="5.68" r="0.26" transform="translate(1.88 15.9) rotate(-45)"/><circle class="cls-2" cx="20.76" cy="6.43" r="0.26" transform="translate(1.53 16.56) rotate(-45)"/><circle class="cls-2" cx="21.31" cy="7.23" r="0.26" transform="translate(1.13 17.19) rotate(-45)"/><circle class="cls-2" cx="21.79" cy="8.08" r="0.25" transform="translate(0.67 17.78) rotate(-45)"/><circle class="cls-2" cx="22.2" cy="8.97" r="0.23" transform="translate(0.16 18.32) rotate(-45)"/><circle class="cls-2" cx="22.52" cy="9.89" r="0.2" transform="translate(-0.4 18.82) rotate(-45)"/><circle class="cls-2" cx="22.76" cy="10.83" r="0.22" transform="translate(-1 19.26) rotate(-45)"/><circle class="cls-2" cx="22.91" cy="11.8" r="0.17" transform="translate(-1.63 19.65) rotate(-45)"/><circle class="cls-2" cx="22.97" cy="12.77" r="0.2" transform="translate(-2.3 19.99) rotate(-45)"/><circle class="cls-2" cx="22.95" cy="13.75" r="0.19" transform="translate(-3 20.26) rotate(-45)"/><circle class="cls-2" cx="22.84" cy="14.72" r="0.18" transform="translate(-3.71 20.46) rotate(-45)"/><circle class="cls-2" cx="22.65" cy="15.67" r="0.22" transform="translate(-4.45 20.6) rotate(-45)"/><circle class="cls-2" cx="22.37" cy="16.6" r="0.25" transform="translate(-5.19 20.68) rotate(-45)"/><circle class="cls-2" cx="22" cy="17.51" r="0.24" transform="translate(-5.94 20.69) rotate(-45)"/><circle class="cls-2" cx="21.56" cy="18.38" r="0.22" transform="translate(-6.68 20.63) rotate(-45)"/><circle class="cls-2" cx="21.04" cy="19.21" r="0.21" transform="translate(-7.42 20.5) rotate(-45)"/><circle class="cls-2" cx="20.45" cy="19.98" r="0.23" transform="translate(-8.14 20.31) rotate(-45)"/><circle class="cls-2" cx="19.79" cy="20.7" r="0.26" transform="translate(-8.84 20.06) rotate(-45)"/><circle class="cls-2" cx="19.07" cy="21.36" r="0.17" transform="translate(-9.52 19.74) rotate(-45)"/><circle class="cls-2" cx="18.3" cy="21.95" r="0.17" transform="translate(-10.16 19.37) rotate(-45)"/><circle class="cls-2" cx="17.47" cy="22.47" r="0.07" transform="translate(-10.77 18.94) rotate(-45)"/><circle class="cls-2" cx="16.6" cy="22.91" r="0.19" transform="translate(-11.34 18.45) rotate(-45)"/><circle class="cls-2" cx="15.7" cy="23.28" r="0.2" transform="translate(-11.86 17.92) rotate(-45)"/><circle class="cls-2" cx="14.76" cy="23.56" r="0.21" transform="translate(-12.33 17.34) rotate(-45)"/><circle class="cls-2" cx="12.84" cy="23.86" r="0.19" transform="translate(-13.11 16.07) rotate(-45)"/><circle class="cls-2" cx="11.86" cy="23.88" r="0.06" transform="translate(-13.41 15.38) rotate(-45)"/><circle class="cls-2" cx="10.89" cy="23.82" r="0.27" transform="translate(-13.65 14.68) rotate(-45)"/><circle class="cls-2" cx="9.93" cy="23.66" r="0.22" transform="translate(-13.83 13.95) rotate(-45)"/><circle class="cls-2" cx="8.98" cy="23.43" r="0.21" transform="translate(-13.93 13.21) rotate(-45)"/><circle class="cls-2" cx="8.06" cy="23.1" r="0.26" transform="translate(-13.98 12.47) rotate(-45)"/><circle class="cls-2" cx="7.17" cy="22.7" r="0.17" transform="translate(-13.95 11.72) rotate(-45)"/><circle class="cls-2" cx="6.32" cy="22.22" r="0.24" transform="translate(-13.86 10.98) rotate(-45)"/><circle class="cls-2" cx="5.52" cy="21.66" r="0.2" transform="translate(-13.7 10.25) rotate(-45)"/><circle class="cls-2" cx="4.77" cy="21.04" r="0.09" transform="translate(-13.48 9.54) rotate(-45)"/><circle class="cls-2" cx="4.08" cy="20.35" r="0.12" transform="translate(-13.19 8.85) rotate(-45)"/><circle class="cls-2" cx="3.46" cy="19.6" r="0.16" transform="translate(-12.85 8.19) rotate(-45)"/><circle class="cls-2" cx="2.9" cy="18.8" r="0.09" transform="translate(-12.44 7.56) rotate(-45)"/><circle class="cls-2" cx="2.42" cy="17.95" r="0.26" transform="translate(-11.98 6.97) rotate(-45)"/><circle class="cls-2" cx="2.02" cy="17.06" r="0.16" transform="translate(-11.47 6.42) rotate(-45)"/><circle class="cls-2" cx="1.69" cy="16.14" r="0.09" transform="translate(-10.92 5.93) rotate(-45)"/><circle class="cls-2" cx="1.46" cy="15.2" r="0.07" transform="translate(-10.32 5.48) rotate(-45)"/><circle class="cls-2" cx="1.3" cy="14.23" r="0.09" transform="translate(-9.68 5.09) rotate(-45)"/><circle class="cls-2" cx="1.24" cy="13.26" r="0.15" transform="translate(-9.01 4.76) rotate(-45)"/><circle class="cls-2" cx="1.26" cy="12.28" r="0.08" transform="translate(-8.32 4.49) rotate(-45)"/><circle class="cls-2" cx="1.56" cy="10.36" r="0.11" transform="translate(-6.87 4.14) rotate(-45)"/><circle class="cls-2" cx="1.85" cy="9.42" r="0.07" transform="translate(-6.12 4.07) rotate(-45)"/><circle class="cls-2" cx="2.21" cy="8.52" r="0.17" transform="translate(-5.38 4.06) rotate(-45)"/><circle class="cls-2" cx="2.65" cy="7.65" r="0.09" transform="translate(-4.63 4.12) rotate(-45)"/><circle class="cls-2" cx="3.76" cy="6.05" r="0.07" transform="translate(-3.17 4.43) rotate(-45)"/><circle class="cls-2" cx="6.18" cy="2.99" r="0.18" transform="translate(-0.3 5.24) rotate(-45)"/><circle class="cls-2" cx="7.04" cy="2.53" r="0.16" transform="translate(0.27 5.72) rotate(-45)"/><circle class="cls-2" cx="7.93" cy="2.14" r="0.06" transform="translate(0.81 6.24) rotate(-45)"/><circle class="cls-2" cx="8.86" cy="1.83" r="0.16" transform="translate(1.3 6.8) rotate(-45)"/><circle class="cls-2" cx="9.8" cy="1.6" r="0.15" transform="translate(1.74 7.4) rotate(-45)"/><circle class="cls-2" cx="10.77" cy="1.44" r="0.19" transform="translate(2.13 8.04) rotate(-45)"/><circle class="cls-2" cx="11.74" cy="1.37" r="0.18" transform="translate(2.47 8.7) rotate(-45)"/><circle class="cls-2" cx="12.72" cy="1.38" r="0.14" transform="translate(2.75 9.4) rotate(-45)"/><circle class="cls-2" cx="13.69" cy="1.47" r="0.19" transform="translate(2.97 10.11) rotate(-45)"/><circle class="cls-2" cx="14.65" cy="1.65" r="0.19" transform="translate(3.13 10.84) rotate(-45)"/><circle class="cls-2" cx="15.59" cy="1.9" r="0.2" transform="translate(3.22 11.58) rotate(-45)"/><circle class="cls-2" cx="16.51" cy="2.23" r="0.22" transform="translate(3.26 12.33) rotate(-45)"/><circle class="cls-2" cx="17.39" cy="2.64" r="0.21" transform="translate(3.23 13.07) rotate(-45)"/><circle class="cls-2" cx="18.24" cy="3.11" r="0.16" transform="translate(3.14 13.81) rotate(-45)"/><circle class="cls-2" cx="19.05" cy="3.66" r="0.25" transform="translate(2.99 14.54) rotate(-45)"/><circle class="cls-2" cx="19.81" cy="4.28" r="0.25" transform="translate(2.78 15.26) rotate(-45)"/><circle class="cls-2" cx="20.51" cy="4.95" r="0.14" transform="translate(2.51 15.96) rotate(-45)"/><circle class="cls-2" cx="21.16" cy="5.68" r="0.15" transform="translate(2.18 16.63) rotate(-45)"/><circle class="cls-2" cx="21.74" cy="6.47" r="0.26" transform="translate(1.79 17.27) rotate(-45)"/><circle class="cls-2" cx="22.25" cy="7.3" r="0.24" transform="translate(1.36 17.87) rotate(-45)"/><circle class="cls-2" cx="22.7" cy="8.17" r="0.22" transform="translate(0.87 18.44) rotate(-45)"/><circle class="cls-2" cx="23.07" cy="9.07" r="0.24" transform="translate(0.34 18.97) rotate(-45)"/><circle class="cls-2" cx="23.36" cy="10" r="0.08" transform="translate(-0.23 19.44) rotate(-45)"/><circle class="cls-2" cx="23.57" cy="10.95" r="0.34" transform="translate(-0.84 19.87) rotate(-45)"/><circle class="cls-2" cx="23.7" cy="11.92" r="0.16" transform="translate(-1.49 20.25) rotate(-45)"/><circle class="cls-2" cx="23.75" cy="12.89" r="0.16" transform="translate(-2.16 20.57) rotate(-45)"/><circle class="cls-2" cx="23.42" cy="15.79" r="0.08" transform="translate(-4.31 21.18) rotate(-45)"/><circle class="cls-2" cx="22.8" cy="17.64" r="0.22" transform="translate(-5.8 21.29) rotate(-45)"/><circle class="cls-2" cx="22.37" cy="18.52" r="0.29" transform="translate(-6.54 21.24) rotate(-45)"/><circle class="cls-2" cx="21.87" cy="19.36" r="0.22" transform="translate(-7.28 21.14) rotate(-45)"/><circle class="cls-2" cx="21.31" cy="20.15" r="0.21" transform="translate(-8.01 20.97) rotate(-45)"/><circle class="cls-2" cx="20.68" cy="20.9" r="0.26" transform="translate(-8.72 20.74) rotate(-45)"/><circle class="cls-2" cx="19.99" cy="21.59" r="0.24" transform="translate(-9.41 20.46) rotate(-45)"/><circle class="cls-2" cx="19.25" cy="22.22" r="0.17" transform="translate(-10.07 20.12) rotate(-45)"/><circle class="cls-2" cx="18.45" cy="22.78" r="0.17" transform="translate(-10.71 19.72) rotate(-45)"/><circle class="cls-2" cx="17.61" cy="23.28" r="0.13" transform="translate(-11.3 19.27) rotate(-45)"/><circle class="cls-2" cx="16.73" cy="23.7" r="0.06" transform="translate(-11.86 18.77) rotate(-45)"/><circle class="cls-2" cx="14.88" cy="24.33" r="0.07" transform="translate(-12.84 17.65) rotate(-45)"/><circle class="cls-2" cx="9.09" cy="24.27" r="0.23" transform="translate(-14.5 13.54) rotate(-45)"/><circle class="cls-2" cx="7.26" cy="23.61" r="0.17" transform="translate(-14.57 12.05) rotate(-45)"/><circle class="cls-2" cx="6.39" cy="23.16" r="0.07" transform="translate(-14.51 11.3) rotate(-45)"/><circle class="cls-2" cx="5.56" cy="22.65" r="0.16" transform="translate(-14.39 10.56) rotate(-45)"/><circle class="cls-2" cx="4.78" cy="22.07" r="0.16" transform="translate(-14.2 9.84) rotate(-45)"/><circle class="cls-2" cx="4.05" cy="21.42" r="0.16" transform="translate(-13.96 9.13) rotate(-45)"/><circle class="cls-2" cx="3.37" cy="20.72" r="0.08" transform="translate(-13.66 8.45) rotate(-45)"/><circle class="cls-2" cx="1.32" cy="17.42" r="0.07" transform="translate(-11.93 6.04) rotate(-45)"/><circle class="cls-2" cx="9.21" cy="0.93" r="0.11" transform="translate(2.04 6.78) rotate(-45)"/><circle class="cls-2" cx="10.16" cy="0.74" r="0.13" transform="translate(2.45 7.4) rotate(-45)"/><circle class="cls-2" cx="11.13" cy="0.63" r="0.19" transform="translate(2.82 8.06) rotate(-45)"/><circle class="cls-2" cx="12.11" cy="0.59" r="0.13" transform="translate(3.13 8.73) rotate(-45)"/><circle class="cls-2" cx="13.08" cy="0.63" r="0.13" transform="translate(3.39 9.43) rotate(-45)"/><circle class="cls-2" cx="14.05" cy="0.74" r="0.13" transform="translate(3.59 10.15) rotate(-45)"/><circle class="cls-2" cx="15.01" cy="0.93" r="0.18" transform="translate(3.73 10.88) rotate(-45)"/><circle class="cls-2" cx="15.95" cy="1.2" r="0.11" transform="translate(3.82 11.63) rotate(-45)"/><circle class="cls-2" cx="17.75" cy="1.94" r="0.07" transform="translate(3.82 13.12) rotate(-45)"/><circle class="cls-2" cx="18.6" cy="2.42" r="0.11" transform="translate(3.73 13.86) rotate(-45)"/><circle class="cls-2" cx="23.18" cy="18.66" r="0.22" transform="translate(-6.4 21.85) rotate(-45)"/><circle class="cls-2" cx="17.75" cy="24.08" r="0.13" transform="translate(-11.83 19.6) rotate(-45)"/><circle class="cls-2" cx="16.86" cy="24.49" r="0.06" transform="translate(-12.38 19.1) rotate(-45)"/><circle class="cls-2" cx="5.61" cy="23.61" r="0.07" transform="translate(-15.05 10.88) rotate(-45)"/><circle class="cls-2" cx="4.8" cy="23.07" r="0.16" transform="translate(-14.9 10.15) rotate(-45)"/><circle class="cls-2" cx="4.04" cy="22.46" r="0.16" transform="translate(-14.7 9.43) rotate(-45)"/><circle class="cls-2" cx="3.32" cy="21.8" r="0.08" transform="translate(-14.44 8.73) rotate(-45)"/><circle class="cls-2" cx="2.66" cy="21.08" r="0.08" transform="translate(-14.13 8.06) rotate(-45)"/></g></svg>