<svg xmlns="http://www.w3.org/2000/svg" xmlns:xlink="http://www.w3.org/1999/xlink" viewBox="0 0 367.48 252.72"><defs><style>.cls-1{fill:url(#linear-gradient);}.cls-2{fill:url(#linear-gradient-2);}.cls-3{fill:url(#linear-gradient-3);}.cls-4{fill:url(#linear-gradient-4);}.cls-5{fill:#4caf50;}.cls-6{fill:#43a047;}.cls-7{fill:url(#linear-gradient-5);}.cls-8{fill:#66bb6a;}.cls-9{fill:#81c784;}.cls-10{fill:#388e3c;}.cls-11{fill:#a5d6a7;}.cls-12{fill:url(#linear-gradient-6);}.cls-13{fill:url(#linear-gradient-7);}.cls-14{fill:#263238;}.cls-15{fill:#d32f2f;}.cls-16{fill:#ffebee;}.cls-17{fill:#ffc107;}</style><linearGradient id="linear-gradient" x1="-1546.94" y1="29.59" x2="-1499.02" y2="-64.46" gradientTransform="matrix(-1, -0.1, -0.1, 1, -1277.53, -62.15)" gradientUnits="userSpaceOnUse"><stop offset="0" stop-color="#fff" stop-opacity="0"/><stop offset="0.03" stop-color="#d2e2f3" stop-opacity="0.19"/><stop offset="0.07" stop-color="#a6c4e7" stop-opacity="0.38"/><stop offset="0.11" stop-color="#7faadc" stop-opacity="0.55"/><stop offset="0.16" stop-color="#5d95d3" stop-opacity="0.69"/><stop offset="0.21" stop-color="#4383cc" stop-opacity="0.81"/><stop offset="0.27" stop-color="#2e75c7" stop-opacity="0.89"/><stop offset="0.34" stop-color="#206cc3" stop-opacity="0.95"/><stop offset="0.45" stop-color="#1767c1" stop-opacity="0.99"/><stop offset="0.74" stop-color="#1565c0"/></linearGradient><linearGradient id="linear-gradient-2" x1="-1561.88" y1="91.4" x2="-1540.88" y2="-79.62" gradientTransform="matrix(-1, -0.1, -0.1, 1, -1277.53, -62.15)" gradientUnits="userSpaceOnUse"><stop offset="0" stop-color="#1565c0" stop-opacity="0"/><stop offset="0.09" stop-color="#1565c0" stop-opacity="0.21"/><stop offset="0.2" stop-color="#1565c0" stop-opacity="0.45"/><stop offset="0.31" stop-color="#1565c0" stop-opacity="0.65"/><stop offset="0.42" stop-color="#1565c0" stop-opacity="0.8"/><stop offset="0.53" stop-color="#1565c0" stop-opacity="0.91"/><stop offset="0.64" stop-color="#1565c0" stop-opacity="0.98"/><stop offset="0.74" stop-color="#1565c0"/></linearGradient><linearGradient id="linear-gradient-3" x1="-1483.66" y1="78.25" x2="-1539.42" y2="-74.93" gradientTransform="matrix(-0.99, -0.1, -0.1, 0.99, -1279.88, -64.09)" gradientUnits="userSpaceOnUse"><stop offset="0" stop-color="#fff" stop-opacity="0"/><stop offset="0.01" stop-color="#f6f8fc" stop-opacity="0.04"/><stop offset="0.04" stop-color="#c0cfe6" stop-opacity="0.26"/><stop offset="0.09" stop-color="#8faad4" stop-opacity="0.46"/><stop offset="0.13" stop-color="#668bc4" stop-opacity="0.63"/><stop offset="0.19" stop-color="#4572b7" stop-opacity="0.77"/><stop offset="0.25" stop-color="#2c5ead" stop-opacity="0.87"/><stop offset="0.33" stop-color="#1a51a6" stop-opacity="0.95"/><stop offset="0.44" stop-color="#1049a2" stop-opacity="0.99"/><stop offset="0.74" stop-color="#0d47a1"/></linearGradient><linearGradient id="linear-gradient-4" x1="213.69" y1="126.9" x2="301.33" y2="3.78" gradientTransform="translate(-52.97 35.07) rotate(2.7)" gradientUnits="userSpaceOnUse"><stop offset="0" stop-color="#a5d6a7"/><stop offset="0.19" stop-color="#9bd29d"/><stop offset="0.52" stop-color="#80c682"/><stop offset="0.93" stop-color="#54b257"/><stop offset="1" stop-color="#4caf50"/></linearGradient><linearGradient id="linear-gradient-5" x1="235.83" y1="139.18" x2="326.26" y2="12.14" gradientTransform="matrix(1, 0.05, -0.05, 1, -52.65, 33.66)" xlink:href="#linear-gradient-4"/><linearGradient id="linear-gradient-6" x1="-1540.61" y1="193.03" x2="-1506.93" y2="19.77" gradientTransform="matrix(-1, 0, 0, 1, -1385.12, 0)" gradientUnits="userSpaceOnUse"><stop offset="0" stop-color="#1976d2" stop-opacity="0"/><stop offset="0.03" stop-color="#1976d2" stop-opacity="0.11"/><stop offset="0.09" stop-color="#1976d2" stop-opacity="0.32"/><stop offset="0.15" stop-color="#1976d2" stop-opacity="0.5"/><stop offset="0.22" stop-color="#1976d2" stop-opacity="0.66"/><stop offset="0.29" stop-color="#1976d2" stop-opacity="0.78"/><stop offset="0.37" stop-color="#1976d2" stop-opacity="0.88"/><stop offset="0.46" stop-color="#1976d2" stop-opacity="0.95"/><stop offset="0.56" stop-color="#1976d2" stop-opacity="0.99"/><stop offset="0.74" stop-color="#1976d2"/></linearGradient><linearGradient id="linear-gradient-7" x1="-1452.59" y1="174.38" x2="-1523.99" y2="34.26" gradientTransform="matrix(-1, 0, 0, 1, -1385.12, 0)" gradientUnits="userSpaceOnUse"><stop offset="0" stop-color="#1565c0" stop-opacity="0"/><stop offset="0.19" stop-color="#1565c0" stop-opacity="0.33"/><stop offset="0.38" stop-color="#1565c0" stop-opacity="0.62"/><stop offset="0.54" stop-color="#1565c0" stop-opacity="0.83"/><stop offset="0.66" stop-color="#1565c0" stop-opacity="0.95"/><stop offset="0.74" stop-color="#1565c0"/></linearGradient></defs><title>icon</title><g id="Layer_9" data-name="Layer 9"><polygon class="cls-1" points="231.24 127.07 236.82 127.61 248.45 12.43 242.88 11.89 231.24 127.07"/><polyline class="cls-2" points="228.83 182.81 246.28 10.04 303.58 39.88 289.36 180.66"/><polyline class="cls-3" points="229.18 182.73 246.6 10.13 207.97 18.1 193.29 160.44"/><path class="cls-4" d="M278.11,96.15l-80.57,15.72,44.59-63.39A81.14,81.14,0,0,0,205.4,37.83c-43-2-79.44,29.31-81.35,70a70.12,70.12,0,0,0,1.49,18.09,74.11,74.11,0,0,0,30.48,45,80.78,80.78,0,0,0,42.44,14.28c43,2,79.44-29.31,81.36-70A70.13,70.13,0,0,0,278.11,96.15Z"/><path class="cls-5" d="M198.06,111.89l41.75-60.32a73.82,73.82,0,0,0-75.94-5L197.67,112Z"/><polygon class="cls-5" points="197.47 112 197.8 112.26 197.81 112.24 197.67 111.96 197.47 112"/><path class="cls-6" d="M197.67,112l-33.8-65.42a74.13,74.13,0,0,0-24.47,20.34L197.47,112Z"/><polygon class="cls-5" points="197.84 112.29 197.81 112.24 197.8 112.26 197.84 112.29"/><path class="cls-7" d="M286.54,90c-4.62-20-17.88-37.21-36-47.63L206,105.77Z"/><path class="cls-8" d="M278.65,91.67a73.87,73.87,0,0,0-30.16-45.92l-41.75,60.32Z"/><polygon class="cls-5" points="197.81 112.24 198.06 111.89 197.67 111.96 197.81 112.24"/><path class="cls-9" d="M270,97.49l-71.91,14.4-.25.35,0,0,58.05,45.11A73.89,73.89,0,0,0,270,97.49Z"/><path class="cls-10" d="M139.39,66.88a73.89,73.89,0,0,0-14.1,59.57L197.47,112Z"/><path class="cls-11" d="M197.84,112.29l0,0-.33-.26L125.3,126.45a73.76,73.76,0,0,0,130.59,30.94Z"/><polyline class="cls-12" points="168.73 190.46 168.73 46.15 113.11 21.46 114.73 198.46"/><polygon class="cls-13" points="114.73 198.46 113.73 21.46 79.73 33.46 79.73 179.46 114.73 198.46"/><path class="cls-14" d="M178,188.35c64.5-12.17,126.33-14.32,178.64-8.89-43.32-11.11-104.7-13.93-170.37-3.54-78.6,12.31-143.4,40.21-174.81,67.37C56.57,220.47,113.88,200.39,178,188.35Z"/><path class="cls-15" d="M184.08,108.76c0,34.33-42.21,71.51-42.21,71.51s-42.21-37.18-42.21-71.51a42.21,42.21,0,1,1,84.42,0Z"/><circle class="cls-16" cx="142.09" cy="107.66" r="15.75"/><path class="cls-17" d="M178,188.35l-2.54.49A45.78,45.78,0,0,1,119.31,202c-17.48,4.89-34.21,10.34-50.06,16.21l7.43,8.83q6.46-4.33,12.85-8.76a75.93,75.93,0,0,0,12.61,8.79q-2.16,7.37-4.2,14.79l20,7.26q3.41-6.9,6.7-13.86a77.64,77.64,0,0,0,15.5,1.87c1.27,5,2.72,10.92,4,15.55l21.08-3.57c-.31-4.79-.87-10.84-1.33-16A76.87,76.87,0,0,0,178,226.53c3.6,3.66,7.21,7.17,10.87,10.76,5.5-4.48,11-9,16.5-13.51-2.91-4.22-5.86-8.44-8.84-12.61a75.76,75.76,0,0,0,9-12.46q7.49,2.08,15,4L228,183l-3.79-1.77C209,183.06,193.62,185.41,178,188.35Z"/></g></svg>