<svg xmlns="http://www.w3.org/2000/svg" xmlns:xlink="http://www.w3.org/1999/xlink" viewBox="0 0 569.95 570.06"><defs><style>.cls-1{fill:#fff;}.cls-2{fill:url(#linear-gradient);}.cls-3{fill:url(#linear-gradient-2);}.cls-4{fill:url(#linear-gradient-3);}.cls-5{fill:url(#linear-gradient-4);}.cls-6{fill:#4caf50;}.cls-7{fill:#43a047;}.cls-8{fill:url(#linear-gradient-5);}.cls-9{fill:#66bb6a;}.cls-10{fill:#81c784;}.cls-11{fill:#388e3c;}.cls-12{fill:#a5d6a7;}.cls-13{fill:url(#linear-gradient-6);}.cls-14{fill:url(#linear-gradient-7);}.cls-15{fill:url(#linear-gradient-8);}.cls-16{fill:url(#linear-gradient-9);}.cls-17{fill:url(#linear-gradient-10);}.cls-18{fill:url(#Nuovo_campione_sfumatura_2);}.cls-19{fill:url(#Nuovo_campione_sfumatura_2-2);}.cls-20{fill:url(#Nuovo_campione_sfumatura_2-3);}.cls-21{fill:none;stroke:#757575;stroke-miterlimit:10;stroke-width:0.95px;}.cls-22{fill:url(#linear-gradient-11);}.cls-23{fill:url(#linear-gradient-12);}.cls-24{fill:url(#linear-gradient-13);}.cls-25{fill:url(#linear-gradient-14);}.cls-26{fill:#263238;}.cls-27{fill:#ffc107;}.cls-28{fill:#d32f2f;}.cls-29{fill:#ffebee;}</style><linearGradient id="linear-gradient" x1="-113.08" y1="242.67" x2="-65.16" y2="148.62" gradientTransform="matrix(-1, -0.1, -0.1, 1, 403.95, 20.44)" gradientUnits="userSpaceOnUse"><stop offset="0" stop-color="#fff" stop-opacity="0"/><stop offset="0.03" stop-color="#d2e2f3" stop-opacity="0.19"/><stop offset="0.07" stop-color="#a6c4e7" stop-opacity="0.38"/><stop offset="0.11" stop-color="#7faadc" stop-opacity="0.55"/><stop offset="0.16" stop-color="#5d95d3" stop-opacity="0.69"/><stop offset="0.21" stop-color="#4383cc" stop-opacity="0.81"/><stop offset="0.27" stop-color="#2e75c7" stop-opacity="0.89"/><stop offset="0.34" stop-color="#206cc3" stop-opacity="0.95"/><stop offset="0.45" stop-color="#1767c1" stop-opacity="0.99"/><stop offset="0.74" stop-color="#1565c0"/></linearGradient><linearGradient id="linear-gradient-2" x1="-128.02" y1="304.48" x2="-107.02" y2="133.46" gradientTransform="matrix(-1, -0.1, -0.1, 1, 403.95, 20.44)" gradientUnits="userSpaceOnUse"><stop offset="0" stop-color="#1565c0" stop-opacity="0"/><stop offset="0.09" stop-color="#1565c0" stop-opacity="0.21"/><stop offset="0.2" stop-color="#1565c0" stop-opacity="0.45"/><stop offset="0.31" stop-color="#1565c0" stop-opacity="0.65"/><stop offset="0.42" stop-color="#1565c0" stop-opacity="0.8"/><stop offset="0.53" stop-color="#1565c0" stop-opacity="0.91"/><stop offset="0.64" stop-color="#1565c0" stop-opacity="0.98"/><stop offset="0.74" stop-color="#1565c0"/></linearGradient><linearGradient id="linear-gradient-3" x1="-49.86" y1="292.9" x2="-105.62" y2="139.72" gradientTransform="matrix(-0.99, -0.1, -0.1, 0.99, 401.82, 20.72)" gradientUnits="userSpaceOnUse"><stop offset="0" stop-color="#fff" stop-opacity="0"/><stop offset="0.01" stop-color="#f6f8fc" stop-opacity="0.04"/><stop offset="0.04" stop-color="#c0cfe6" stop-opacity="0.26"/><stop offset="0.09" stop-color="#8faad4" stop-opacity="0.46"/><stop offset="0.13" stop-color="#668bc4" stop-opacity="0.63"/><stop offset="0.19" stop-color="#4572b7" stop-opacity="0.77"/><stop offset="0.25" stop-color="#2c5ead" stop-opacity="0.87"/><stop offset="0.33" stop-color="#1a51a6" stop-opacity="0.95"/><stop offset="0.44" stop-color="#1049a2" stop-opacity="0.99"/><stop offset="0.74" stop-color="#0d47a1"/></linearGradient><linearGradient id="linear-gradient-4" x1="446.61" y1="309.32" x2="534.25" y2="186.21" gradientTransform="translate(-43.43 -4) rotate(2.7)" gradientUnits="userSpaceOnUse"><stop offset="0" stop-color="#a5d6a7"/><stop offset="0.19" stop-color="#9bd29d"/><stop offset="0.52" stop-color="#80c682"/><stop offset="0.93" stop-color="#54b257"/><stop offset="1" stop-color="#4caf50"/></linearGradient><linearGradient id="linear-gradient-5" x1="468.72" y1="321" x2="559.16" y2="193.97" gradientTransform="matrix(1, 0.05, -0.05, 1, -43.29, -4.57)" xlink:href="#linear-gradient-4"/><linearGradient id="linear-gradient-6" x1="-106.69" y1="347.16" x2="-73.02" y2="173.89" gradientTransform="matrix(-1, 0, 0, 1, 282.4, 0)" gradientUnits="userSpaceOnUse"><stop offset="0" stop-color="#1976d2" stop-opacity="0"/><stop offset="0.03" stop-color="#1976d2" stop-opacity="0.11"/><stop offset="0.09" stop-color="#1976d2" stop-opacity="0.32"/><stop offset="0.15" stop-color="#1976d2" stop-opacity="0.5"/><stop offset="0.22" stop-color="#1976d2" stop-opacity="0.66"/><stop offset="0.29" stop-color="#1976d2" stop-opacity="0.78"/><stop offset="0.37" stop-color="#1976d2" stop-opacity="0.88"/><stop offset="0.46" stop-color="#1976d2" stop-opacity="0.95"/><stop offset="0.56" stop-color="#1976d2" stop-opacity="0.99"/><stop offset="0.74" stop-color="#1976d2"/></linearGradient><linearGradient id="linear-gradient-7" x1="-18.68" y1="328.5" x2="-90.07" y2="188.39" gradientTransform="matrix(-1, 0, 0, 1, 282.4, 0)" gradientUnits="userSpaceOnUse"><stop offset="0" stop-color="#1565c0" stop-opacity="0"/><stop offset="0.19" stop-color="#1565c0" stop-opacity="0.33"/><stop offset="0.38" stop-color="#1565c0" stop-opacity="0.62"/><stop offset="0.54" stop-color="#1565c0" stop-opacity="0.83"/><stop offset="0.66" stop-color="#1565c0" stop-opacity="0.95"/><stop offset="0.74" stop-color="#1565c0"/></linearGradient><linearGradient id="linear-gradient-8" x1="173.18" y1="231.02" x2="217.96" y2="222.86" gradientTransform="matrix(1, -0.05, 0.05, 1.01, 37.55, 9.24)" gradientUnits="userSpaceOnUse"><stop offset="0" stop-color="#bdbdbd" stop-opacity="0"/><stop offset="0.02" stop-color="#b8b8b8" stop-opacity="0.14"/><stop offset="0.06" stop-color="#b1b1b1" stop-opacity="0.34"/><stop offset="0.1" stop-color="#ababab" stop-opacity="0.51"/><stop offset="0.15" stop-color="#a6a6a6" stop-opacity="0.65"/><stop offset="0.21" stop-color="#a3a3a3" stop-opacity="0.75"/><stop offset="0.28" stop-color="#a0a0a0" stop-opacity="0.83"/><stop offset="0.38" stop-color="#9e9e9e" stop-opacity="0.87"/><stop offset="0.65" stop-color="#9e9e9e" stop-opacity="0.88"/><stop offset="1" stop-color="#757575"/></linearGradient><linearGradient id="linear-gradient-9" x1="245.48" y1="428.65" x2="263.59" y2="295.91" gradientTransform="matrix(-1, 0.07, 0.07, 1, 328.09, -30.59)" gradientUnits="userSpaceOnUse"><stop offset="0" stop-color="#1565c0" stop-opacity="0"/><stop offset="0.22" stop-color="#1565c0" stop-opacity="0.35"/><stop offset="0.47" stop-color="#1565c0" stop-opacity="0.7"/><stop offset="0.65" stop-color="#1565c0" stop-opacity="0.92"/><stop offset="0.74" stop-color="#1565c0"/></linearGradient><linearGradient id="linear-gradient-10" x1="177.83" y1="248.58" x2="237.75" y2="344.21" gradientUnits="userSpaceOnUse"><stop offset="0.26" stop-color="#bdbdbd"/><stop offset="0.35" stop-color="#bdbdbd" stop-opacity="0.91"/><stop offset="0.54" stop-color="#bdbdbd" stop-opacity="0.68"/><stop offset="0.8" stop-color="#bdbdbd" stop-opacity="0.31"/><stop offset="1" stop-color="#bdbdbd" stop-opacity="0"/></linearGradient><linearGradient id="Nuovo_campione_sfumatura_2" x1="83.58" y1="300.99" x2="181.97" y2="300.99" gradientTransform="translate(36.95 -3.8) rotate(-2.92)" gradientUnits="userSpaceOnUse"><stop offset="0.26" stop-color="#757575"/><stop offset="0.58" stop-color="#767676" stop-opacity="0.98"/><stop offset="0.7" stop-color="#7a7a7a" stop-opacity="0.93"/><stop offset="0.78" stop-color="#828282" stop-opacity="0.82"/><stop offset="0.85" stop-color="#8c8c8c" stop-opacity="0.68"/><stop offset="0.91" stop-color="#9a9a9a" stop-opacity="0.49"/><stop offset="0.96" stop-color="#aaa" stop-opacity="0.27"/><stop offset="1" stop-color="#bdbdbd" stop-opacity="0"/></linearGradient><linearGradient id="Nuovo_campione_sfumatura_2-2" x1="83.58" y1="271.17" x2="160.38" y2="271.17" xlink:href="#Nuovo_campione_sfumatura_2"/><linearGradient id="Nuovo_campione_sfumatura_2-3" x1="83.58" y1="241.82" x2="140.59" y2="241.82" xlink:href="#Nuovo_campione_sfumatura_2"/><linearGradient id="linear-gradient-11" x1="203.37" y1="424.12" x2="217.79" y2="282.76" gradientTransform="matrix(-1, 0.07, 0.07, 1, 328.09, -30.59)" gradientUnits="userSpaceOnUse"><stop offset="0" stop-color="#1976d2" stop-opacity="0"/><stop offset="0.74" stop-color="#1976d2"/></linearGradient><linearGradient id="linear-gradient-12" x1="341.05" y1="326.71" x2="263.99" y2="114.99" gradientUnits="userSpaceOnUse"><stop offset="0" stop-color="#0d47a1" stop-opacity="0"/><stop offset="0.12" stop-color="#0d47a1" stop-opacity="0.21"/><stop offset="0.33" stop-color="#0d47a1" stop-opacity="0.55"/><stop offset="0.51" stop-color="#0d47a1" stop-opacity="0.79"/><stop offset="0.65" stop-color="#0d47a1" stop-opacity="0.94"/><stop offset="0.74" stop-color="#0d47a1"/></linearGradient><linearGradient id="linear-gradient-13" x1="234.91" y1="341.51" x2="263.94" y2="105.08" gradientUnits="userSpaceOnUse"><stop offset="0" stop-color="#1565c0" stop-opacity="0"/><stop offset="0.74" stop-color="#1565c0"/></linearGradient><linearGradient id="linear-gradient-14" x1="173.19" y1="231.02" x2="217.96" y2="222.86" xlink:href="#linear-gradient-8"/></defs><title>imagotipo</title><g id="Layer_2" data-name="Layer 2"><circle class="cls-1" cx="284.98" cy="285.03" r="285.03"/></g><g id="Layer_3" data-name="Layer 3"><polygon class="cls-2" points="464.86 281.2 470.43 281.74 482.07 166.55 476.49 166.01 464.86 281.2"/><polyline class="cls-3" points="462.44 336.94 479.9 164.16 537.19 194.01 522.97 334.78"/><polyline class="cls-4" points="462.8 336.86 480.21 164.25 441.59 172.22 426.91 314.57"/><path class="cls-5" d="M511.72,250.27,431.15,266l44.59-63.39A81.14,81.14,0,0,0,439,192c-43-2-79.44,29.31-81.35,70A70.12,70.12,0,0,0,359.16,280a74.11,74.11,0,0,0,30.48,45,80.78,80.78,0,0,0,42.44,14.28c43,2,79.44-29.31,81.36-70A70.13,70.13,0,0,0,511.72,250.27Z"/><path class="cls-6" d="M431.67,266l41.75-60.32a73.82,73.82,0,0,0-75.94-5l33.8,65.42Z"/><polygon class="cls-6" points="431.09 266.13 431.42 266.38 431.43 266.37 431.29 266.09 431.09 266.13"/><path class="cls-7" d="M431.28,266.09l-33.8-65.42A74.13,74.13,0,0,0,373,221l58.08,45.12Z"/><polygon class="cls-6" points="431.45 266.41 431.43 266.37 431.42 266.38 431.45 266.41"/><path class="cls-8" d="M520.15,244.09c-4.62-20-17.88-37.21-36-47.63L439.6,259.89Z"/><path class="cls-9" d="M512.27,245.8a73.87,73.87,0,0,0-30.16-45.92l-41.75,60.32Z"/><polygon class="cls-6" points="431.43 266.37 431.67 266.01 431.29 266.09 431.43 266.37"/><path class="cls-10" d="M503.58,251.62,431.67,266l-.25.35,0,0,58.05,45.11a73.89,73.89,0,0,0,14.08-59.9Z"/><path class="cls-11" d="M373,221a73.89,73.89,0,0,0-14.1,59.57l72.18-14.45Z"/><path class="cls-12" d="M431.45,266.41l0,0-.33-.26-72.18,14.45A73.76,73.76,0,0,0,489.5,311.52Z"/><polyline class="cls-13" points="402.35 344.58 402.35 200.28 346.72 175.58 348.35 352.58"/><polygon class="cls-14" points="348.35 352.58 347.35 175.58 313.35 187.58 313.35 333.58 348.35 352.58"/><path class="cls-15" d="M249,282.18c-34.07,3.35-73.56,3.57-107.91,1.56a323.29,323.29,0,0,1-9.55-81q28.15-4.56,56.42-6.89t56.65-2.45C248.07,222.7,250.43,252.63,249,282.18Z"/><polyline class="cls-16" points="78.51 426.03 69.99 290.92 121.35 277.23 132.96 425.77"/><path class="cls-17" d="M244.68,194.46A308.48,308.48,0,0,0,188,196.31a321,321,0,0,0-56.15,12.28c.66,26.4,1.92,50.86,3.77,75l23.81,10.59,6.71,96.56c28.11,2.73,56-.67,83.7-5.17C251.87,316.51,250.14,263.39,244.68,194.46Z"/><path class="cls-18" d="M137.12,298.6a1,1,0,0,1-1.05-.72,1,1,0,0,1,.72-1.24A428.15,428.15,0,0,1,202,283.87c10.17-1.17,20.5-2,30.71-2.38a1.07,1.07,0,0,1,1.08,1,1,1,0,0,1-1,1.09h0c-10.16,0-20.44,1.16-30.56,2.32a425.89,425.89,0,0,0-64.86,12.68A1.08,1.08,0,0,1,137.12,298.6Z"/><path class="cls-19" d="M135.59,268.64a1,1,0,0,1-1.05-.72,1,1,0,0,1,.72-1.24,428.14,428.14,0,0,1,65.19-12.77c3-.35,6.09-.67,9.12-.95a1,1,0,0,1,1.13.9,1,1,0,0,1-.94,1.09c-3,.28-6.07.6-9.07.94a426.07,426.07,0,0,0-64.86,12.7Z"/><path class="cls-20" d="M134.06,238.68A1,1,0,0,1,133,238a1,1,0,0,1,.72-1.24,430.35,430.35,0,0,1,54.55-11.4,1,1,0,0,1,1.18.84,1,1,0,0,1-.88,1.14,428.33,428.33,0,0,0-54.28,11.35Z"/><path class="cls-21" d="M132.39,208.72a321.2,321.2,0,0,1,56.15-12.28c18.8-2.35,37.1-4.17,56.09-3.05"/><polyline class="cls-22" points="167.37 408.36 159.43 294.16 121.35 277.23 132.14 416.98"/><polygon class="cls-23" points="313.35 187.58 331.49 181.18 331.38 123.68 284.35 107.58 284.33 347.35 313.35 331.5 313.35 187.58"/><path class="cls-24" d="M209.35,141v53.36a309.28,309.28,0,0,1,35.33.07c4.28,54,6.27,98.31,6,148.17l33.72,4.95v-240Z"/><path class="cls-25" d="M249,282.18c-34.07,3.35-73.56,3.57-107.91,1.56a323.28,323.28,0,0,1-9.55-81q28.15-4.56,56.42-6.89t56.65-2.45C248.07,222.7,250.43,252.63,249,282.18Z"/><path class="cls-26" d="M291.32,361.38c94.62-17.85,185.3-21,262-13-63.55-16.29-153.58-20.44-249.91-5.2C188.16,361.19,93.11,402.12,47,442,113.17,408.48,197.24,379,291.32,361.38Z"/><path class="cls-27" d="M280.45,381l4.47-18.42q-26.28,5.11-51.44,11.38a45.75,45.75,0,0,1-59,16.61q-24.72,7.8-47.81,16.53l-1.39,1.73,15.49,14.32q5.87-5.1,11.65-10.3A75.94,75.94,0,0,0,166.05,420q-1.22,7.59-2.32,15.2l20.76,4.7q2.52-7.27,4.91-14.59a77.63,77.63,0,0,0,15.61-.08c1.89,4.83,4.07,10.5,5.92,14.92L231.42,434c-.9-4.72-2.22-10.64-3.33-15.71a76.88,76.88,0,0,0,13.12-8.33c4,3.18,8,6.21,12.13,9.32,4.9-5.13,9.78-10.33,14.68-15.47-3.42-3.82-6.87-7.64-10.35-11.41A75.75,75.75,0,0,0,265,378.9Q272.74,380,280.45,381Z"/><path class="cls-27" d="M309.44,358.13l12.78,11.33q5.7-5.33,11.31-10.74a76.62,76.62,0,0,0,13.87,6.93q-1,7.74-1.8,15.49l20.95,4.28q2.27-7.45,4.42-14.94a76.65,76.65,0,0,0,15.63-.45c2.05,4.86,4.43,10.57,6.44,15l20.29-6.76c-1.06-4.77-2.59-10.76-3.87-15.88a75.76,75.76,0,0,0,12.86-8.78c4.14,3.13,8.27,6.12,12.47,9.18,4.73-5.33,9.44-10.73,14.17-16.06l-2.09-2.23A979.31,979.31,0,0,0,309.44,358.13Z"/><path class="cls-28" d="M324.06,275.93c0,34.33-42.21,71.51-42.21,71.51s-42.21-37.18-42.21-71.51a42.21,42.21,0,1,1,84.42,0Z"/><circle class="cls-29" cx="282.07" cy="274.84" r="15.75"/></g></svg>