<svg xmlns="http://www.w3.org/2000/svg" xmlns:xlink="http://www.w3.org/1999/xlink" viewBox="0 0 1080 540"><defs><style>.cls-1{opacity:0.9;}.cls-2{fill:#fff;}.cls-3{fill:url(#linear-gradient);}.cls-4{fill:url(#linear-gradient-2);}.cls-5{fill:url(#linear-gradient-3);}.cls-6{fill:url(#linear-gradient-4);}.cls-7{fill:#4caf50;}.cls-8{fill:#43a047;}.cls-9{fill:url(#linear-gradient-5);}.cls-10{fill:#66bb6a;}.cls-11{fill:#81c784;}.cls-12{fill:#388e3c;}.cls-13{fill:#a5d6a7;}.cls-14{fill:url(#linear-gradient-6);}.cls-15{fill:url(#linear-gradient-7);}.cls-16{fill:url(#linear-gradient-8);}.cls-17{fill:url(#linear-gradient-9);}.cls-18{fill:url(#linear-gradient-10);}.cls-19{fill:url(#Nuovo_campione_sfumatura_2);}.cls-20{fill:url(#Nuovo_campione_sfumatura_2-2);}.cls-21{fill:url(#Nuovo_campione_sfumatura_2-3);}.cls-22{fill:none;stroke:#757575;stroke-miterlimit:10;stroke-width:0.95px;}.cls-23{fill:url(#linear-gradient-11);}.cls-24{fill:url(#linear-gradient-12);}.cls-25{fill:url(#linear-gradient-13);}.cls-26{fill:#263238;}.cls-27{fill:#ffc107;}.cls-28{fill:#d32f2f;}.cls-29{fill:#ffebee;}</style><linearGradient id="linear-gradient" x1="-2158.69" y1="66.25" x2="-2110.77" y2="-27.79" gradientTransform="matrix(-1, -0.1, -0.1, 1, -1661.99, -81.05)" gradientUnits="userSpaceOnUse"><stop offset="0" stop-color="#fff" stop-opacity="0"/><stop offset="0.03" stop-color="#d2e2f3" stop-opacity="0.19"/><stop offset="0.07" stop-color="#a6c4e7" stop-opacity="0.38"/><stop offset="0.11" stop-color="#7faadc" stop-opacity="0.55"/><stop offset="0.16" stop-color="#5d95d3" stop-opacity="0.69"/><stop offset="0.21" stop-color="#4383cc" stop-opacity="0.81"/><stop offset="0.27" stop-color="#2e75c7" stop-opacity="0.89"/><stop offset="0.34" stop-color="#206cc3" stop-opacity="0.95"/><stop offset="0.45" stop-color="#1767c1" stop-opacity="0.99"/><stop offset="0.74" stop-color="#1565c0"/></linearGradient><linearGradient id="linear-gradient-2" x1="-2173.63" y1="128.06" x2="-2152.64" y2="-42.96" gradientTransform="matrix(-1, -0.1, -0.1, 1, -1661.99, -81.05)" gradientUnits="userSpaceOnUse"><stop offset="0" stop-color="#1565c0" stop-opacity="0"/><stop offset="0.09" stop-color="#1565c0" stop-opacity="0.21"/><stop offset="0.2" stop-color="#1565c0" stop-opacity="0.45"/><stop offset="0.31" stop-color="#1565c0" stop-opacity="0.65"/><stop offset="0.42" stop-color="#1565c0" stop-opacity="0.8"/><stop offset="0.53" stop-color="#1565c0" stop-opacity="0.91"/><stop offset="0.64" stop-color="#1565c0" stop-opacity="0.98"/><stop offset="0.74" stop-color="#1565c0"/></linearGradient><linearGradient id="linear-gradient-3" x1="-2092.56" y1="113.92" x2="-2148.31" y2="-39.26" gradientTransform="matrix(-0.99, -0.1, -0.1, 0.99, -1661.31, -83.29)" gradientUnits="userSpaceOnUse"><stop offset="0" stop-color="#fff" stop-opacity="0"/><stop offset="0.01" stop-color="#f6f8fc" stop-opacity="0.04"/><stop offset="0.04" stop-color="#c0cfe6" stop-opacity="0.26"/><stop offset="0.09" stop-color="#8faad4" stop-opacity="0.46"/><stop offset="0.13" stop-color="#668bc4" stop-opacity="0.63"/><stop offset="0.19" stop-color="#4572b7" stop-opacity="0.77"/><stop offset="0.25" stop-color="#2c5ead" stop-opacity="0.87"/><stop offset="0.33" stop-color="#1a51a6" stop-opacity="0.95"/><stop offset="0.44" stop-color="#1049a2" stop-opacity="0.99"/><stop offset="0.74" stop-color="#0d47a1"/></linearGradient><linearGradient id="linear-gradient-4" x1="384.11" y1="183.52" x2="471.74" y2="60.41" gradientTransform="translate(0.23 48.03) rotate(2.7)" gradientUnits="userSpaceOnUse"><stop offset="0" stop-color="#a5d6a7"/><stop offset="0.19" stop-color="#9bd29d"/><stop offset="0.52" stop-color="#80c682"/><stop offset="0.93" stop-color="#54b257"/><stop offset="1" stop-color="#4caf50"/></linearGradient><linearGradient id="linear-gradient-5" x1="407.34" y1="196.17" x2="497.78" y2="69.14" gradientTransform="matrix(1, 0.05, -0.05, 1, -0.58, 46.36)" xlink:href="#linear-gradient-4"/><linearGradient id="linear-gradient-6" x1="-2258.29" y1="270.58" x2="-2224.61" y2="97.31" gradientTransform="matrix(-1, 0, 0, 1, -1882.04, 0)" gradientUnits="userSpaceOnUse"><stop offset="0" stop-color="#1976d2" stop-opacity="0"/><stop offset="0.03" stop-color="#1976d2" stop-opacity="0.11"/><stop offset="0.09" stop-color="#1976d2" stop-opacity="0.32"/><stop offset="0.15" stop-color="#1976d2" stop-opacity="0.5"/><stop offset="0.22" stop-color="#1976d2" stop-opacity="0.66"/><stop offset="0.29" stop-color="#1976d2" stop-opacity="0.78"/><stop offset="0.37" stop-color="#1976d2" stop-opacity="0.88"/><stop offset="0.46" stop-color="#1976d2" stop-opacity="0.95"/><stop offset="0.56" stop-color="#1976d2" stop-opacity="0.99"/><stop offset="0.74" stop-color="#1976d2"/></linearGradient><linearGradient id="linear-gradient-7" x1="-2170.28" y1="251.92" x2="-2241.67" y2="111.8" gradientTransform="matrix(-1, 0, 0, 1, -1882.04, 0)" gradientUnits="userSpaceOnUse"><stop offset="0" stop-color="#1565c0" stop-opacity="0"/><stop offset="0.19" stop-color="#1565c0" stop-opacity="0.33"/><stop offset="0.38" stop-color="#1565c0" stop-opacity="0.62"/><stop offset="0.54" stop-color="#1565c0" stop-opacity="0.83"/><stop offset="0.66" stop-color="#1565c0" stop-opacity="0.95"/><stop offset="0.74" stop-color="#1565c0"/></linearGradient><linearGradient id="linear-gradient-8" x1="-1974.84" y1="428.65" x2="-1956.73" y2="295.91" gradientTransform="matrix(-1, 0.07, 0.07, 1, -1899.75, 46.69)" gradientUnits="userSpaceOnUse"><stop offset="0" stop-color="#1565c0" stop-opacity="0"/><stop offset="0.22" stop-color="#1565c0" stop-opacity="0.35"/><stop offset="0.47" stop-color="#1565c0" stop-opacity="0.7"/><stop offset="0.65" stop-color="#1565c0" stop-opacity="0.92"/><stop offset="0.74" stop-color="#1565c0"/></linearGradient><linearGradient id="linear-gradient-9" x1="164.98" y1="172" x2="224.9" y2="267.62" gradientUnits="userSpaceOnUse"><stop offset="0.26" stop-color="#bdbdbd"/><stop offset="0.35" stop-color="#bdbdbd" stop-opacity="0.91"/><stop offset="0.54" stop-color="#bdbdbd" stop-opacity="0.68"/><stop offset="0.8" stop-color="#bdbdbd" stop-opacity="0.31"/><stop offset="1" stop-color="#bdbdbd" stop-opacity="0"/></linearGradient><linearGradient id="linear-gradient-10" x1="200.95" y1="217.81" x2="239.7" y2="193.95" gradientTransform="matrix(1, -0.05, 0.05, 1.01, -13.18, -59.76)" gradientUnits="userSpaceOnUse"><stop offset="0.15" stop-color="#9e9e9e" stop-opacity="0"/><stop offset="1" stop-color="#969696"/></linearGradient><linearGradient id="Nuovo_campione_sfumatura_2" x1="121.81" y1="280.29" x2="220.19" y2="280.29" gradientTransform="translate(-13.02 -57.75) rotate(-2.92)" gradientUnits="userSpaceOnUse"><stop offset="0.26" stop-color="#757575"/><stop offset="0.58" stop-color="#767676" stop-opacity="0.98"/><stop offset="0.7" stop-color="#7a7a7a" stop-opacity="0.93"/><stop offset="0.78" stop-color="#828282" stop-opacity="0.82"/><stop offset="0.85" stop-color="#8c8c8c" stop-opacity="0.68"/><stop offset="0.91" stop-color="#9a9a9a" stop-opacity="0.49"/><stop offset="0.96" stop-color="#aaa" stop-opacity="0.27"/><stop offset="1" stop-color="#bdbdbd" stop-opacity="0"/></linearGradient><linearGradient id="Nuovo_campione_sfumatura_2-2" x1="121.81" y1="250.46" x2="198.61" y2="250.46" xlink:href="#Nuovo_campione_sfumatura_2"/><linearGradient id="Nuovo_campione_sfumatura_2-3" x1="121.81" y1="221.11" x2="178.82" y2="221.11" xlink:href="#Nuovo_campione_sfumatura_2"/><linearGradient id="linear-gradient-11" x1="-2016.95" y1="424.12" x2="-2002.53" y2="282.76" gradientTransform="matrix(-1, 0.07, 0.07, 1, -1899.75, 46.69)" gradientUnits="userSpaceOnUse"><stop offset="0" stop-color="#1976d2" stop-opacity="0"/><stop offset="0.74" stop-color="#1976d2"/></linearGradient><linearGradient id="linear-gradient-12" x1="328.2" y1="250.12" x2="251.14" y2="38.41" gradientUnits="userSpaceOnUse"><stop offset="0" stop-color="#0d47a1" stop-opacity="0"/><stop offset="0.12" stop-color="#0d47a1" stop-opacity="0.21"/><stop offset="0.33" stop-color="#0d47a1" stop-opacity="0.55"/><stop offset="0.51" stop-color="#0d47a1" stop-opacity="0.79"/><stop offset="0.65" stop-color="#0d47a1" stop-opacity="0.94"/><stop offset="0.74" stop-color="#0d47a1"/></linearGradient><linearGradient id="linear-gradient-13" x1="222.06" y1="264.93" x2="251.1" y2="28.49" gradientUnits="userSpaceOnUse"><stop offset="0" stop-color="#1565c0" stop-opacity="0"/><stop offset="0.74" stop-color="#1565c0"/></linearGradient></defs><title>logo_negativo</title><g id="Layer_7" data-name="Layer 7"><g class="cls-1"><path class="cls-2" d="M381.36,476.11c.76-.67,1.5-1.36,2.23-2.05a79.76,79.76,0,0,0,6.29-6.44l-29.22-27.5a42.38,42.38,0,0,1-15,12.77q-9.34,4.91-21.86,4.91a49.55,49.55,0,0,1-19.89-3.93,45.84,45.84,0,0,1-15.59-10.93,50.31,50.31,0,0,1-10.19-16.82,61.09,61.09,0,0,1-3.68-21.61,59.4,59.4,0,0,1,3.68-21.24,51,51,0,0,1,10.31-16.82,47.55,47.55,0,0,1,15.84-11.17,49.72,49.72,0,0,1,20.26-4.05,51.35,51.35,0,0,1,19.65,3.93,35.25,35.25,0,0,1,15.47,12l28.49-28.49A63.14,63.14,0,0,0,377,328.8q3.8-8.8,7.47-17.65l-23.12-12.65q-5.3,8.11-10.46,16.32c-5.94-2.1-12.12-2.81-18.51-3.64-.69-6.46-1.42-12.52-2.21-18.58l-26.23.83c-.41,6.09-.77,12.19-1.08,18.68a90.16,90.16,0,0,0-18.24,5.2c-3.77-5.24-7.58-10.65-11.43-15.82-7.44,4.69-14.88,9.29-22.31,14,2.83,5.83,5.72,11.58,8.64,17.36a94.83,94.83,0,0,0-13,14.1q-8.76-3.93-17.58-7.73l-12.41,23.56q8,5.4,16,10.65a95.61,95.61,0,0,0-4.37,18.87c-6.44.71-12.19,1.46-19.33,2.3q.4,13.37.81,26.73c7.17.4,13,.78,19.43,1.08a95.44,95.44,0,0,0,5.49,18.56q-7.71,5.76-15.33,11.64L233,475.3q8.58-4.33,17.08-8.81A94.52,94.52,0,0,0,264,479.77q-3.86,8.93-7.57,17.92l23.12,12.65q5.3-8.11,10.46-16.32c5.93,2.1,12.14,4.23,18.53,5.06.7,6.56,1.49,14.25,2.28,20.31l26.23-.83c.43-6.09.74-13.82,1-20.41a91.67,91.67,0,0,0,18.2-5.9c3.77,5.24,7.57,10.29,11.42,15.47,7.44-4.69,14.87-9.47,22.31-14.16C387.17,487.73,384.29,481.89,381.36,476.11Z"/><path class="cls-2" d="M407.8,491.69V317.82H524.69v35.36H448.32v32.91h72.2v33.64h-72.2v36.1h80.79v35.85Z"/><path class="cls-2" d="M719.18,404.26q0,22.84-8.47,39.41a79.47,79.47,0,0,1-22.35,27.26,93.16,93.16,0,0,1-31.31,15.72,126.85,126.85,0,0,1-35.36,5H556.86V317.82h62.87a155.45,155.45,0,0,1,36.34,4.3A91.25,91.25,0,0,1,688,336.36,72.93,72.93,0,0,1,710.59,363Q719.18,379.71,719.18,404.26Zm-43.71,0q0-14.73-4.79-24.43a41.18,41.18,0,0,0-12.77-15.47,51.18,51.18,0,0,0-18.17-8.23,89.47,89.47,0,0,0-21-2.46H597.87V455.34h19.89a90.34,90.34,0,0,0,21.73-2.58,51.37,51.37,0,0,0,18.42-8.47,42,42,0,0,0,12.77-15.72Q675.47,418.76,675.47,404.26Z"/><path class="cls-2" d="M889,454.73a62.26,62.26,0,0,1-15.1,22.1,69.69,69.69,0,0,1-23.7,14.37,95,95,0,0,1-61.76,0,67.2,67.2,0,0,1-23.33-14.37,62.38,62.38,0,0,1-14.73-22.1,76.38,76.38,0,0,1-5.16-28.61V317.82H787V422.68a48.49,48.49,0,0,0,1.84,13.51,34.58,34.58,0,0,0,5.65,11.42,26.47,26.47,0,0,0,10.07,8,40.18,40.18,0,0,0,30.21,0,27.57,27.57,0,0,0,10.19-8,31.79,31.79,0,0,0,5.65-11.42,51.87,51.87,0,0,0,1.72-13.51V317.82h42v108.3A74.86,74.86,0,0,1,889,454.73Z"/><path class="cls-2" d="M1020,363a38,38,0,0,0-14.12-10.93A39.84,39.84,0,0,0,989.06,348a50,50,0,0,0-8.47.74,21.93,21.93,0,0,0-7.74,2.82,19.1,19.1,0,0,0-5.77,5.4,14.37,14.37,0,0,0-2.33,8.47,13.67,13.67,0,0,0,1.84,7.37A16.4,16.4,0,0,0,972,378a48.06,48.06,0,0,0,8.47,4.05q4.91,1.84,11.05,3.81,8.84,2.95,18.42,6.51a69,69,0,0,1,17.44,9.46,49.69,49.69,0,0,1,13,14.61q5.16,8.72,5.16,21.73,0,15-5.52,25.91a51.66,51.66,0,0,1-14.86,18,63.64,63.64,0,0,1-21.36,10.56,89.9,89.9,0,0,1-24.8,3.44,102.46,102.46,0,0,1-36.1-6.51,76.4,76.4,0,0,1-29-18.54l27.5-28a50.75,50.75,0,0,0,16.82,13.14A45.63,45.63,0,0,0,979,461.48a41.68,41.68,0,0,0,9.08-1,22.6,22.6,0,0,0,7.74-3.19,16,16,0,0,0,5.28-5.89,18.55,18.55,0,0,0,2-8.84,14,14,0,0,0-2.46-8.35,24.07,24.07,0,0,0-7-6.26,56.78,56.78,0,0,0-11.3-5.16q-6.76-2.33-15.35-5a146.22,146.22,0,0,1-16.33-6.39,54.64,54.64,0,0,1-14.24-9.45,43.74,43.74,0,0,1-10.07-14q-3.81-8.23-3.81-20,0-14.49,5.89-24.8a51.24,51.24,0,0,1,15.47-16.94,66.51,66.51,0,0,1,21.61-9.7,98,98,0,0,1,24.31-3.07,90.34,90.34,0,0,1,30.08,5.4,77.58,77.58,0,0,1,26.89,16Z"/></g><polygon class="cls-3" points="452.01 204.61 457.58 205.15 469.22 89.97 463.64 89.43 452.01 204.61"/><polyline class="cls-4" points="449.6 260.35 467.05 87.58 524.34 117.42 510.12 258.2"/><polyline class="cls-5" points="449.95 260.28 467.37 87.67 428.74 95.64 414.06 237.99"/><path class="cls-6" d="M498.88,173.69l-80.57,15.72L462.89,126a81.14,81.14,0,0,0-36.72-10.65c-43-2-79.44,29.31-81.35,70a70.12,70.12,0,0,0,1.49,18.09,74.11,74.11,0,0,0,30.48,45,80.78,80.78,0,0,0,42.44,14.28c43,2,79.44-29.31,81.36-70A70.13,70.13,0,0,0,498.88,173.69Z"/><path class="cls-7" d="M418.82,189.43l41.75-60.32a73.82,73.82,0,0,0-75.94-5l33.8,65.42Z"/><polygon class="cls-7" points="418.24 189.54 418.56 189.8 418.58 189.78 418.44 189.5 418.24 189.54"/><path class="cls-8" d="M418.44,189.5l-33.8-65.42a74.13,74.13,0,0,0-24.47,20.34l58.08,45.12Z"/><polygon class="cls-7" points="418.6 189.83 418.58 189.78 418.56 189.8 418.6 189.83"/><path class="cls-9" d="M507.3,167.51c-4.62-20-17.88-37.21-36-47.63l-44.52,63.43Z"/><path class="cls-10" d="M499.42,169.21a73.87,73.87,0,0,0-30.16-45.92l-41.75,60.32Z"/><polygon class="cls-7" points="418.58 189.78 418.82 189.43 418.44 189.5 418.58 189.78"/><path class="cls-11" d="M490.73,175l-71.91,14.4-.25.35,0,0,58.05,45.11A73.89,73.89,0,0,0,490.73,175Z"/><path class="cls-12" d="M360.16,144.42A73.89,73.89,0,0,0,346.06,204l72.18-14.45Z"/><path class="cls-13" d="M418.6,189.83l0,0-.33-.26L346.06,204a73.76,73.76,0,0,0,130.59,30.94Z"/><polyline class="cls-14" points="389.5 268 389.5 123.69 333.88 99 335.5 276"/><polygon class="cls-15" points="335.5 276 334.5 99 300.5 111 300.5 257 335.5 276"/><polyline class="cls-16" points="65.66 349.45 57.14 214.34 108.5 200.65 120.11 349.19"/><path class="cls-17" d="M231.83,117.88a308.48,308.48,0,0,0-56.68,1.85A321,321,0,0,0,119,132c.66,26.4,1.92,50.86,3.77,75l23.81,10.59,6.71,96.56c28.11,2.73,56-.67,83.7-5.17C239,239.92,237.29,186.81,231.83,117.88Z"/><path class="cls-18" d="M236.93,205.07c-34.07,3.35-73.56,3.57-107.91,1.56a323.28,323.28,0,0,1-9.55-81q28.15-4.56,56.42-6.89t56.65-2.45C236,145.58,238.36,175.52,236.93,205.07Z"/><path class="cls-19" d="M124.27,222a1,1,0,0,1-1.05-.72,1,1,0,0,1,.72-1.24,428.15,428.15,0,0,1,65.19-12.77c10.17-1.17,20.5-2,30.71-2.38a1.07,1.07,0,0,1,1.08,1,1,1,0,0,1-1,1.09h0c-10.16,0-20.44,1.16-30.56,2.32A425.89,425.89,0,0,0,124.51,222,1.08,1.08,0,0,1,124.27,222Z"/><path class="cls-20" d="M122.74,192.05a1,1,0,0,1-1.05-.72,1,1,0,0,1,.72-1.24,428.14,428.14,0,0,1,65.19-12.77c3-.35,6.09-.67,9.12-.95a1,1,0,0,1,1.13.9,1,1,0,0,1-.94,1.09c-3,.28-6.07.6-9.07.94A426.07,426.07,0,0,0,123,192Z"/><path class="cls-21" d="M121.21,162.09a1,1,0,0,1-1.05-.72,1,1,0,0,1,.72-1.24,430.35,430.35,0,0,1,54.55-11.4,1,1,0,0,1,1.18.84,1,1,0,0,1-.88,1.14,428.33,428.33,0,0,0-54.28,11.35Z"/><path class="cls-22" d="M119.54,132.14a321.2,321.2,0,0,1,56.15-12.28c18.8-2.36,37.1-4.17,56.09-3.05"/><polyline class="cls-23" points="154.52 331.77 146.58 217.58 108.5 200.65 119.29 340.4"/><polygon class="cls-24" points="300.5 111 318.64 104.6 318.53 47.09 271.5 31 271.48 270.77 300.5 254.92 300.5 111"/><path class="cls-25" d="M196.5,64.45v53.36a309.28,309.28,0,0,1,35.33.07c4.28,54,6.27,98.31,6,148.17L271.5,271V31Z"/><path class="cls-26" d="M278.48,284.79c94.62-17.85,185.3-21,262-13-63.55-16.29-153.58-20.44-249.91-5.2-115.3,18.05-210.34,59-256.41,98.82C100.32,331.9,184.39,302.45,278.48,284.79Z"/><path class="cls-27" d="M267.6,304.44,272.07,286q-26.28,5.11-51.44,11.38a45.75,45.75,0,0,1-59,16.61q-24.72,7.8-47.81,16.53l-1.39,1.73,15.49,14.32q5.87-5.1,11.65-10.3a75.94,75.94,0,0,0,13.61,7.14q-1.22,7.59-2.32,15.2l20.76,4.7q2.52-7.27,4.91-14.59a77.63,77.63,0,0,0,15.61-.08c1.89,4.83,4.07,10.5,5.92,14.92l20.47-6.18c-.9-4.72-2.22-10.64-3.33-15.71a76.88,76.88,0,0,0,13.12-8.33c4,3.18,8,6.21,12.13,9.32,4.9-5.13,9.78-10.33,14.68-15.47-3.42-3.82-6.87-7.64-10.35-11.41a75.75,75.75,0,0,0,7.38-13.49Q259.89,303.44,267.6,304.44Z"/><path class="cls-27" d="M296.6,281.55l12.78,11.33q5.7-5.33,11.31-10.74a76.62,76.62,0,0,0,13.87,6.93q-1,7.74-1.8,15.49l20.95,4.28q2.27-7.45,4.42-14.94a76.65,76.65,0,0,0,15.63-.45c2.05,4.86,4.43,10.57,6.44,15l20.29-6.76c-1.06-4.77-2.59-10.76-3.87-15.88a75.76,75.76,0,0,0,12.86-8.78c4.14,3.13,8.27,6.12,12.47,9.18,4.73-5.33,9.44-10.73,14.17-16.06L434,267.95A979.31,979.31,0,0,0,296.6,281.55Z"/><path class="cls-28" d="M311.21,199.35c0,34.33-42.21,71.51-42.21,71.51s-42.21-37.18-42.21-71.51a42.21,42.21,0,1,1,84.42,0Z"/><circle class="cls-29" cx="269.22" cy="198.25" r="15.75"/></g></svg>